solid box
   facet normal 1.000000e+000 0.000000e+000 0.000000e+000
      outer loop
         vertex 2.010000e+002 2.010000e+002 1.010000e+002
         vertex 2.010000e+002 1.000002e+000 1.010000e+002
         vertex 2.010000e+002 2.010000e+002 1.000004e+000
      endloop
   endfacet
   facet normal 1.000000e+000 0.000000e+000 0.000000e+000
      outer loop
         vertex 2.010000e+002 2.010000e+002 1.000004e+000
         vertex 2.010000e+002 1.000002e+000 1.010000e+002
         vertex 2.010000e+002 1.000002e+000 1.000004e+000
      endloop
   endfacet
   facet normal 0.000000e+000 1.000000e+000 0.000000e+000
      outer loop
         vertex 1.000002e+000 2.010000e+002 1.010000e+002
         vertex 2.010000e+002 2.010000e+002 1.010000e+002
         vertex 1.000002e+000 2.010000e+002 1.000004e+000
      endloop
   endfacet
   facet normal 0.000000e+000 1.000000e+000 0.000000e+000
      outer loop
         vertex 1.000002e+000 2.010000e+002 1.000004e+000
         vertex 2.010000e+002 2.010000e+002 1.010000e+002
         vertex 2.010000e+002 2.010000e+002 1.000004e+000
      endloop
   endfacet
   facet normal -1.000000e+000 0.000000e+000 0.000000e+000
      outer loop
         vertex 1.000002e+000 1.000002e+000 1.010000e+002
         vertex 1.000002e+000 2.010000e+002 1.010000e+002
         vertex 1.000002e+000 1.000002e+000 1.000004e+000
      endloop
   endfacet
   facet normal -1.000000e+000 0.000000e+000 0.000000e+000
      outer loop
         vertex 1.000002e+000 1.000002e+000 1.000004e+000
         vertex 1.000002e+000 2.010000e+002 1.010000e+002
         vertex 1.000002e+000 2.010000e+002 1.000004e+000
      endloop
   endfacet
   facet normal 0.000000e+000 -1.000000e+000 0.000000e+000
      outer loop
         vertex 2.010000e+002 1.000002e+000 1.010000e+002
         vertex 1.000002e+000 1.000002e+000 1.010000e+002
         vertex 2.010000e+002 1.000002e+000 1.000004e+000
      endloop
   endfacet
   facet normal 0.000000e+000 -1.000000e+000 0.000000e+000
      outer loop
         vertex 2.010000e+002 1.000002e+000 1.000004e+000
         vertex 1.000002e+000 1.000002e+000 1.010000e+002
         vertex 1.000002e+000 1.000002e+000 1.000004e+000
      endloop
   endfacet
   facet normal 0.000000e+000 0.000000e+000 1.000000e+000
      outer loop
         vertex 1.000002e+000 2.010000e+002 1.010000e+002
         vertex 1.000002e+000 1.000002e+000 1.010000e+002
         vertex 2.010000e+002 2.010000e+002 1.010000e+002
      endloop
   endfacet
   facet normal 0.000000e+000 0.000000e+000 1.000000e+000
      outer loop
         vertex 2.010000e+002 2.010000e+002 1.010000e+002
         vertex 1.000002e+000 1.000002e+000 1.010000e+002
         vertex 2.010000e+002 1.000002e+000 1.010000e+002
      endloop
   endfacet
   facet normal 0.000000e+000 0.000000e+000 -1.000000e+000
      outer loop
         vertex 1.000002e+000 1.000002e+000 1.000004e+000
         vertex 1.000002e+000 2.010000e+002 1.000004e+000
         vertex 2.010000e+002 1.000002e+000 1.000004e+000
      endloop
   endfacet
   facet normal 0.000000e+000 0.000000e+000 -1.000000e+000
      outer loop
         vertex 2.010000e+002 1.000002e+000 1.000004e+000
         vertex 1.000002e+000 2.010000e+002 1.000004e+000
         vertex 2.010000e+002 2.010000e+002 1.000004e+000
      endloop
   endfacet
endsolid