solid STL generated by MeshLab
  facet normal -0.000000e+000 0.000000e+000 1.000000e+000
    outer loop
      vertex  8.431317e+001 1.307001e+002 3.175000e+001
      vertex  8.431317e+001 6.720007e+001 3.175000e+001
      vertex  1.478132e+002 1.307001e+002 3.175000e+001
    endloop
  endfacet
  facet normal 0.000000e+000 0.000000e+000 1.000000e+000
    outer loop
      vertex  5.411713e+001 1.087614e+002 3.175000e+001
      vertex  5.256318e+001 9.895007e+001 3.175000e+001
      vertex  7.450188e+001 6.875403e+001 3.175000e+001
    endloop
  endfacet
  facet normal 0.000000e+000 0.000000e+000 1.000000e+000
    outer loop
      vertex  8.431317e+001 6.720007e+001 3.175000e+001
      vertex  1.062519e+002 3.700402e+001 3.175000e+001
      vertex  1.160632e+002 3.545007e+001 3.175000e+001
    endloop
  endfacet
  facet normal 0.000000e+000 -0.000000e+000 1.000000e+000
    outer loop
      vertex  1.160632e+002 3.545007e+001 3.175000e+001
      vertex  1.258745e+002 3.700402e+001 3.175000e+001
      vertex  8.431317e+001 6.720007e+001 3.175000e+001
    endloop
  endfacet
  facet normal 0.000000e+000 0.000000e+000 1.000000e+000
    outer loop
      vertex  8.431317e+001 6.720007e+001 3.175000e+001
      vertex  1.258745e+002 3.700402e+001 3.175000e+001
      vertex  1.347254e+002 4.151377e+001 3.175000e+001
    endloop
  endfacet
  facet normal 0.000000e+000 0.000000e+000 1.000000e+000
    outer loop
      vertex  8.431317e+001 6.720007e+001 3.175000e+001
      vertex  1.347254e+002 4.151377e+001 3.175000e+001
      vertex  1.417495e+002 4.853790e+001 3.175000e+001
    endloop
  endfacet
  facet normal 0.000000e+000 0.000000e+000 1.000000e+000
    outer loop
      vertex  1.576245e+002 6.875403e+001 3.175000e+001
      vertex  1.478132e+002 1.307001e+002 3.175000e+001
      vertex  1.478132e+002 6.720007e+001 3.175000e+001
    endloop
  endfacet
  facet normal 0.000000e+000 -0.000000e+000 1.000000e+000
    outer loop
      vertex  1.478132e+002 6.720007e+001 3.175000e+001
      vertex  1.478132e+002 1.307001e+002 3.175000e+001
      vertex  8.431317e+001 6.720007e+001 3.175000e+001
    endloop
  endfacet
  facet normal 0.000000e+000 0.000000e+000 1.000000e+000
    outer loop
      vertex  1.478132e+002 6.720007e+001 3.175000e+001
      vertex  8.431317e+001 6.720007e+001 3.175000e+001
      vertex  1.462592e+002 5.738877e+001 3.175000e+001
    endloop
  endfacet
  facet normal 0.000000e+000 0.000000e+000 1.000000e+000
    outer loop
      vertex  1.462592e+002 5.738877e+001 3.175000e+001
      vertex  8.431317e+001 6.720007e+001 3.175000e+001
      vertex  1.417495e+002 4.853790e+001 3.175000e+001
    endloop
  endfacet
  facet normal 0.000000e+000 0.000000e+000 1.000000e+000
    outer loop
      vertex  8.431317e+001 1.307001e+002 3.175000e+001
      vertex  1.478132e+002 1.307001e+002 3.175000e+001
      vertex  8.586713e+001 1.405114e+002 3.175000e+001
    endloop
  endfacet
  facet normal -0.000000e+000 0.000000e+000 1.000000e+000
    outer loop
      vertex  8.586713e+001 1.405114e+002 3.175000e+001
      vertex  1.478132e+002 1.307001e+002 3.175000e+001
      vertex  1.462592e+002 1.405114e+002 3.175000e+001
    endloop
  endfacet
  facet normal 0.000000e+000 0.000000e+000 1.000000e+000
    outer loop
      vertex  8.586713e+001 1.405114e+002 3.175000e+001
      vertex  1.462592e+002 1.405114e+002 3.175000e+001
      vertex  1.417495e+002 1.493622e+002 3.175000e+001
    endloop
  endfacet
  facet normal -0.000000e+000 -0.000000e+000 1.000000e+000
    outer loop
      vertex  8.586713e+001 5.738877e+001 3.175000e+001
      vertex  9.037688e+001 4.853790e+001 3.175000e+001
      vertex  8.431317e+001 6.720007e+001 3.175000e+001
    endloop
  endfacet
  facet normal 0.000000e+000 0.000000e+000 1.000000e+000
    outer loop
      vertex  8.431317e+001 6.720007e+001 3.175000e+001
      vertex  9.037688e+001 4.853790e+001 3.175000e+001
      vertex  9.740100e+001 4.151377e+001 3.175000e+001
    endloop
  endfacet
  facet normal 0.000000e+000 0.000000e+000 1.000000e+000
    outer loop
      vertex  8.431317e+001 6.720007e+001 3.175000e+001
      vertex  9.740100e+001 4.151377e+001 3.175000e+001
      vertex  1.062519e+002 3.700402e+001 3.175000e+001
    endloop
  endfacet
  facet normal 0.000000e+000 0.000000e+000 1.000000e+000
    outer loop
      vertex  8.431317e+001 1.307001e+002 3.175000e+001
      vertex  7.450188e+001 1.291461e+002 3.175000e+001
      vertex  8.431317e+001 6.720007e+001 3.175000e+001
    endloop
  endfacet
  facet normal 0.000000e+000 0.000000e+000 1.000000e+000
    outer loop
      vertex  8.431317e+001 6.720007e+001 3.175000e+001
      vertex  7.450188e+001 1.291461e+002 3.175000e+001
      vertex  6.565100e+001 1.246364e+002 3.175000e+001
    endloop
  endfacet
  facet normal 0.000000e+000 0.000000e+000 1.000000e+000
    outer loop
      vertex  8.431317e+001 6.720007e+001 3.175000e+001
      vertex  6.565100e+001 1.246364e+002 3.175000e+001
      vertex  7.450188e+001 6.875403e+001 3.175000e+001
    endloop
  endfacet
  facet normal 0.000000e+000 0.000000e+000 1.000000e+000
    outer loop
      vertex  7.450188e+001 6.875403e+001 3.175000e+001
      vertex  6.565100e+001 1.246364e+002 3.175000e+001
      vertex  5.862690e+001 1.176123e+002 3.175000e+001
    endloop
  endfacet
  facet normal 0.000000e+000 0.000000e+000 1.000000e+000
    outer loop
      vertex  7.450188e+001 6.875403e+001 3.175000e+001
      vertex  5.862690e+001 1.176123e+002 3.175000e+001
      vertex  5.411713e+001 1.087614e+002 3.175000e+001
    endloop
  endfacet
  facet normal 0.000000e+000 0.000000e+000 1.000000e+000
    outer loop
      vertex  5.256318e+001 9.895007e+001 3.175000e+001
      vertex  5.411713e+001 8.913878e+001 3.175000e+001
      vertex  7.450188e+001 6.875403e+001 3.175000e+001
    endloop
  endfacet
  facet normal 0.000000e+000 0.000000e+000 1.000000e+000
    outer loop
      vertex  7.450188e+001 6.875403e+001 3.175000e+001
      vertex  5.411713e+001 8.913878e+001 3.175000e+001
      vertex  5.862690e+001 8.028790e+001 3.175000e+001
    endloop
  endfacet
  facet normal 0.000000e+000 0.000000e+000 1.000000e+000
    outer loop
      vertex  7.450188e+001 6.875403e+001 3.175000e+001
      vertex  5.862690e+001 8.028790e+001 3.175000e+001
      vertex  6.565100e+001 7.326378e+001 3.175000e+001
    endloop
  endfacet
  facet normal 0.000000e+000 0.000000e+000 1.000000e+000
    outer loop
      vertex  1.664754e+002 1.246364e+002 3.175000e+001
      vertex  1.734995e+002 8.028790e+001 3.175000e+001
      vertex  1.780092e+002 8.913878e+001 3.175000e+001
    endloop
  endfacet
  facet normal 0.000000e+000 -0.000000e+000 1.000000e+000
    outer loop
      vertex  1.576245e+002 6.875403e+001 3.175000e+001
      vertex  1.664754e+002 7.326378e+001 3.175000e+001
      vertex  1.478132e+002 1.307001e+002 3.175000e+001
    endloop
  endfacet
  facet normal 0.000000e+000 0.000000e+000 1.000000e+000
    outer loop
      vertex  1.478132e+002 1.307001e+002 3.175000e+001
      vertex  1.664754e+002 7.326378e+001 3.175000e+001
      vertex  1.734995e+002 8.028790e+001 3.175000e+001
    endloop
  endfacet
  facet normal 0.000000e+000 0.000000e+000 1.000000e+000
    outer loop
      vertex  1.478132e+002 1.307001e+002 3.175000e+001
      vertex  1.734995e+002 8.028790e+001 3.175000e+001
      vertex  1.576245e+002 1.291461e+002 3.175000e+001
    endloop
  endfacet
  facet normal 0.000000e+000 0.000000e+000 1.000000e+000
    outer loop
      vertex  1.576245e+002 1.291461e+002 3.175000e+001
      vertex  1.734995e+002 8.028790e+001 3.175000e+001
      vertex  1.664754e+002 1.246364e+002 3.175000e+001
    endloop
  endfacet
  facet normal 0.000000e+000 0.000000e+000 1.000000e+000
    outer loop
      vertex  1.417495e+002 1.493622e+002 3.175000e+001
      vertex  1.347254e+002 1.563864e+002 3.175000e+001
      vertex  8.586713e+001 1.405114e+002 3.175000e+001
    endloop
  endfacet
  facet normal 0.000000e+000 0.000000e+000 1.000000e+000
    outer loop
      vertex  8.586713e+001 1.405114e+002 3.175000e+001
      vertex  1.347254e+002 1.563864e+002 3.175000e+001
      vertex  1.258745e+002 1.608961e+002 3.175000e+001
    endloop
  endfacet
  facet normal 0.000000e+000 0.000000e+000 1.000000e+000
    outer loop
      vertex  8.586713e+001 1.405114e+002 3.175000e+001
      vertex  1.258745e+002 1.608961e+002 3.175000e+001
      vertex  1.160632e+002 1.624501e+002 3.175000e+001
    endloop
  endfacet
  facet normal 0.000000e+000 0.000000e+000 1.000000e+000
    outer loop
      vertex  1.160632e+002 1.624501e+002 3.175000e+001
      vertex  1.062519e+002 1.608961e+002 3.175000e+001
      vertex  8.586713e+001 1.405114e+002 3.175000e+001
    endloop
  endfacet
  facet normal 0.000000e+000 0.000000e+000 1.000000e+000
    outer loop
      vertex  8.586713e+001 1.405114e+002 3.175000e+001
      vertex  1.062519e+002 1.608961e+002 3.175000e+001
      vertex  9.740100e+001 1.563864e+002 3.175000e+001
    endloop
  endfacet
  facet normal 0.000000e+000 0.000000e+000 1.000000e+000
    outer loop
      vertex  8.586713e+001 1.405114e+002 3.175000e+001
      vertex  9.740100e+001 1.563864e+002 3.175000e+001
      vertex  9.037688e+001 1.493622e+002 3.175000e+001
    endloop
  endfacet
  facet normal 0.000000e+000 -0.000000e+000 1.000000e+000
    outer loop
      vertex  1.780092e+002 8.913878e+001 3.175000e+001
      vertex  1.795632e+002 9.895007e+001 3.175000e+001
      vertex  1.664754e+002 1.246364e+002 3.175000e+001
    endloop
  endfacet
  facet normal 0.000000e+000 0.000000e+000 1.000000e+000
    outer loop
      vertex  1.664754e+002 1.246364e+002 3.175000e+001
      vertex  1.795632e+002 9.895007e+001 3.175000e+001
      vertex  1.780092e+002 1.087614e+002 3.175000e+001
    endloop
  endfacet
  facet normal 0.000000e+000 0.000000e+000 1.000000e+000
    outer loop
      vertex  1.664754e+002 1.246364e+002 3.175000e+001
      vertex  1.780092e+002 1.087614e+002 3.175000e+001
      vertex  1.734995e+002 1.176123e+002 3.175000e+001
    endloop
  endfacet
  facet normal 1.564343e-001 9.876884e-001 0.000000e+000
    outer loop
      vertex  8.431317e+001 6.720007e+001 1.270000e+002
      vertex  8.431317e+001 6.720007e+001 3.175000e+001
      vertex  7.450188e+001 6.875403e+001 1.270000e+002
    endloop
  endfacet
  facet normal 1.564343e-001 9.876884e-001 0.000000e+000
    outer loop
      vertex  7.450188e+001 6.875403e+001 1.270000e+002
      vertex  8.431317e+001 6.720007e+001 3.175000e+001
      vertex  7.450188e+001 6.875403e+001 3.175000e+001
    endloop
  endfacet
  facet normal 4.539908e-001 8.910064e-001 0.000000e+000
    outer loop
      vertex  7.450188e+001 6.875403e+001 1.270000e+002
      vertex  7.450188e+001 6.875403e+001 3.175000e+001
      vertex  6.565100e+001 7.326378e+001 1.270000e+002
    endloop
  endfacet
  facet normal 4.539908e-001 8.910064e-001 0.000000e+000
    outer loop
      vertex  6.565100e+001 7.326378e+001 1.270000e+002
      vertex  7.450188e+001 6.875403e+001 3.175000e+001
      vertex  6.565100e+001 7.326378e+001 3.175000e+001
    endloop
  endfacet
  facet normal 7.071080e-001 7.071056e-001 0.000000e+000
    outer loop
      vertex  6.565100e+001 7.326378e+001 1.270000e+002
      vertex  6.565100e+001 7.326378e+001 3.175000e+001
      vertex  5.862690e+001 8.028790e+001 1.270000e+002
    endloop
  endfacet
  facet normal 7.071080e-001 7.071056e-001 0.000000e+000
    outer loop
      vertex  5.862690e+001 8.028790e+001 1.270000e+002
      vertex  6.565100e+001 7.326378e+001 3.175000e+001
      vertex  5.862690e+001 8.028790e+001 3.175000e+001
    endloop
  endfacet
  facet normal 8.910054e-001 4.539927e-001 0.000000e+000
    outer loop
      vertex  5.862690e+001 8.028790e+001 1.270000e+002
      vertex  5.862690e+001 8.028790e+001 3.175000e+001
      vertex  5.411713e+001 8.913878e+001 1.270000e+002
    endloop
  endfacet
  facet normal 8.910054e-001 4.539927e-001 0.000000e+000
    outer loop
      vertex  5.411713e+001 8.913878e+001 1.270000e+002
      vertex  5.862690e+001 8.028790e+001 3.175000e+001
      vertex  5.411713e+001 8.913878e+001 3.175000e+001
    endloop
  endfacet
  facet normal 9.876884e-001 1.564340e-001 0.000000e+000
    outer loop
      vertex  5.411713e+001 8.913878e+001 1.270000e+002
      vertex  5.411713e+001 8.913878e+001 3.175000e+001
      vertex  5.256318e+001 9.895007e+001 1.270000e+002
    endloop
  endfacet
  facet normal 9.876884e-001 1.564340e-001 0.000000e+000
    outer loop
      vertex  5.256318e+001 9.895007e+001 1.270000e+002
      vertex  5.411713e+001 8.913878e+001 3.175000e+001
      vertex  5.256318e+001 9.895007e+001 3.175000e+001
    endloop
  endfacet
  facet normal 9.876884e-001 -1.564342e-001 0.000000e+000
    outer loop
      vertex  5.256318e+001 9.895007e+001 1.270000e+002
      vertex  5.256318e+001 9.895007e+001 3.175000e+001
      vertex  5.411713e+001 1.087614e+002 1.270000e+002
    endloop
  endfacet
  facet normal 9.876884e-001 -1.564342e-001 0.000000e+000
    outer loop
      vertex  5.411713e+001 1.087614e+002 1.270000e+002
      vertex  5.256318e+001 9.895007e+001 3.175000e+001
      vertex  5.411713e+001 1.087614e+002 3.175000e+001
    endloop
  endfacet
  facet normal 8.910059e-001 -4.539917e-001 0.000000e+000
    outer loop
      vertex  5.411713e+001 1.087614e+002 1.270000e+002
      vertex  5.411713e+001 1.087614e+002 3.175000e+001
      vertex  5.862690e+001 1.176123e+002 1.270000e+002
    endloop
  endfacet
  facet normal 8.910059e-001 -4.539917e-001 0.000000e+000
    outer loop
      vertex  5.862690e+001 1.176123e+002 1.270000e+002
      vertex  5.411713e+001 1.087614e+002 3.175000e+001
      vertex  5.862690e+001 1.176123e+002 3.175000e+001
    endloop
  endfacet
  facet normal 7.071080e-001 -7.071056e-001 0.000000e+000
    outer loop
      vertex  5.862690e+001 1.176123e+002 1.270000e+002
      vertex  5.862690e+001 1.176123e+002 3.175000e+001
      vertex  6.565100e+001 1.246364e+002 1.270000e+002
    endloop
  endfacet
  facet normal 7.071080e-001 -7.071056e-001 0.000000e+000
    outer loop
      vertex  6.565100e+001 1.246364e+002 1.270000e+002
      vertex  5.862690e+001 1.176123e+002 3.175000e+001
      vertex  6.565100e+001 1.246364e+002 3.175000e+001
    endloop
  endfacet
  facet normal 4.539902e-001 -8.910067e-001 0.000000e+000
    outer loop
      vertex  6.565100e+001 1.246364e+002 1.270000e+002
      vertex  6.565100e+001 1.246364e+002 3.175000e+001
      vertex  7.450188e+001 1.291461e+002 1.270000e+002
    endloop
  endfacet
  facet normal 4.539902e-001 -8.910067e-001 0.000000e+000
    outer loop
      vertex  7.450188e+001 1.291461e+002 1.270000e+002
      vertex  6.565100e+001 1.246364e+002 3.175000e+001
      vertex  7.450188e+001 1.291461e+002 3.175000e+001
    endloop
  endfacet
  facet normal 1.564373e-001 -9.876879e-001 0.000000e+000
    outer loop
      vertex  7.450188e+001 1.291461e+002 1.270000e+002
      vertex  7.450188e+001 1.291461e+002 3.175000e+001
      vertex  8.431317e+001 1.307001e+002 1.270000e+002
    endloop
  endfacet
  facet normal 1.564373e-001 -9.876879e-001 0.000000e+000
    outer loop
      vertex  8.431317e+001 1.307001e+002 1.270000e+002
      vertex  7.450188e+001 1.291461e+002 3.175000e+001
      vertex  8.431317e+001 1.307001e+002 3.175000e+001
    endloop
  endfacet
  facet normal 9.876883e-001 -1.564348e-001 0.000000e+000
    outer loop
      vertex  8.431317e+001 1.307001e+002 1.270000e+002
      vertex  8.431317e+001 1.307001e+002 3.175000e+001
      vertex  8.586713e+001 1.405114e+002 1.270000e+002
    endloop
  endfacet
  facet normal 9.876883e-001 -1.564348e-001 0.000000e+000
    outer loop
      vertex  8.586713e+001 1.405114e+002 1.270000e+002
      vertex  8.431317e+001 1.307001e+002 3.175000e+001
      vertex  8.586713e+001 1.405114e+002 3.175000e+001
    endloop
  endfacet
  facet normal 8.910064e-001 -4.539908e-001 0.000000e+000
    outer loop
      vertex  8.586713e+001 1.405114e+002 1.270000e+002
      vertex  8.586713e+001 1.405114e+002 3.175000e+001
      vertex  9.037688e+001 1.493622e+002 1.270000e+002
    endloop
  endfacet
  facet normal 8.910064e-001 -4.539908e-001 0.000000e+000
    outer loop
      vertex  9.037688e+001 1.493622e+002 1.270000e+002
      vertex  8.586713e+001 1.405114e+002 3.175000e+001
      vertex  9.037688e+001 1.493622e+002 3.175000e+001
    endloop
  endfacet
  facet normal 7.071068e-001 -7.071068e-001 0.000000e+000
    outer loop
      vertex  9.037688e+001 1.493622e+002 1.270000e+002
      vertex  9.037688e+001 1.493622e+002 3.175000e+001
      vertex  9.740100e+001 1.563864e+002 1.270000e+002
    endloop
  endfacet
  facet normal 7.071068e-001 -7.071068e-001 0.000000e+000
    outer loop
      vertex  9.740100e+001 1.563864e+002 1.270000e+002
      vertex  9.037688e+001 1.493622e+002 3.175000e+001
      vertex  9.740100e+001 1.563864e+002 3.175000e+001
    endloop
  endfacet
  facet normal 4.539908e-001 -8.910064e-001 0.000000e+000
    outer loop
      vertex  9.740100e+001 1.563864e+002 1.270000e+002
      vertex  9.740100e+001 1.563864e+002 3.175000e+001
      vertex  1.062519e+002 1.608961e+002 1.270000e+002
    endloop
  endfacet
  facet normal 4.539908e-001 -8.910064e-001 0.000000e+000
    outer loop
      vertex  1.062519e+002 1.608961e+002 1.270000e+002
      vertex  9.740100e+001 1.563864e+002 3.175000e+001
      vertex  1.062519e+002 1.608961e+002 3.175000e+001
    endloop
  endfacet
  facet normal 1.564343e-001 -9.876884e-001 0.000000e+000
    outer loop
      vertex  1.062519e+002 1.608961e+002 1.270000e+002
      vertex  1.062519e+002 1.608961e+002 3.175000e+001
      vertex  1.160632e+002 1.624501e+002 1.270000e+002
    endloop
  endfacet
  facet normal 1.564343e-001 -9.876884e-001 0.000000e+000
    outer loop
      vertex  1.160632e+002 1.624501e+002 1.270000e+002
      vertex  1.062519e+002 1.608961e+002 3.175000e+001
      vertex  1.160632e+002 1.624501e+002 3.175000e+001
    endloop
  endfacet
  facet normal -1.564346e-001 -9.876883e-001 -0.000000e+000
    outer loop
      vertex  1.160632e+002 1.624501e+002 1.270000e+002
      vertex  1.160632e+002 1.624501e+002 3.175000e+001
      vertex  1.258745e+002 1.608961e+002 1.270000e+002
    endloop
  endfacet
  facet normal -1.564346e-001 -9.876883e-001 -0.000000e+000
    outer loop
      vertex  1.258745e+002 1.608961e+002 1.270000e+002
      vertex  1.160632e+002 1.624501e+002 3.175000e+001
      vertex  1.258745e+002 1.608961e+002 3.175000e+001
    endloop
  endfacet
  facet normal -4.539896e-001 -8.910070e-001 -0.000000e+000
    outer loop
      vertex  1.258745e+002 1.608961e+002 1.270000e+002
      vertex  1.258745e+002 1.608961e+002 3.175000e+001
      vertex  1.347254e+002 1.563864e+002 1.270000e+002
    endloop
  endfacet
  facet normal -4.539896e-001 -8.910070e-001 -0.000000e+000
    outer loop
      vertex  1.347254e+002 1.563864e+002 1.270000e+002
      vertex  1.258745e+002 1.608961e+002 3.175000e+001
      vertex  1.347254e+002 1.563864e+002 3.175000e+001
    endloop
  endfacet
  facet normal -7.071068e-001 -7.071068e-001 -0.000000e+000
    outer loop
      vertex  1.347254e+002 1.563864e+002 1.270000e+002
      vertex  1.347254e+002 1.563864e+002 3.175000e+001
      vertex  1.417495e+002 1.493622e+002 1.270000e+002
    endloop
  endfacet
  facet normal -7.071068e-001 -7.071068e-001 -0.000000e+000
    outer loop
      vertex  1.417495e+002 1.493622e+002 1.270000e+002
      vertex  1.347254e+002 1.563864e+002 3.175000e+001
      vertex  1.417495e+002 1.493622e+002 3.175000e+001
    endloop
  endfacet
  facet normal -8.910064e-001 -4.539908e-001 -0.000000e+000
    outer loop
      vertex  1.417495e+002 1.493622e+002 1.270000e+002
      vertex  1.417495e+002 1.493622e+002 3.175000e+001
      vertex  1.462592e+002 1.405114e+002 1.270000e+002
    endloop
  endfacet
  facet normal -8.910064e-001 -4.539908e-001 -0.000000e+000
    outer loop
      vertex  1.462592e+002 1.405114e+002 1.270000e+002
      vertex  1.417495e+002 1.493622e+002 3.175000e+001
      vertex  1.462592e+002 1.405114e+002 3.175000e+001
    endloop
  endfacet
  facet normal -9.876885e-001 -1.564333e-001 -0.000000e+000
    outer loop
      vertex  1.462592e+002 1.405114e+002 1.270000e+002
      vertex  1.462592e+002 1.405114e+002 3.175000e+001
      vertex  1.478132e+002 1.307001e+002 1.270000e+002
    endloop
  endfacet
  facet normal -9.876885e-001 -1.564333e-001 -0.000000e+000
    outer loop
      vertex  1.478132e+002 1.307001e+002 1.270000e+002
      vertex  1.462592e+002 1.405114e+002 3.175000e+001
      vertex  1.478132e+002 1.307001e+002 3.175000e+001
    endloop
  endfacet
  facet normal -1.564371e-001 -9.876879e-001 -0.000000e+000
    outer loop
      vertex  1.478132e+002 1.307001e+002 1.270000e+002
      vertex  1.478132e+002 1.307001e+002 3.175000e+001
      vertex  1.576245e+002 1.291461e+002 1.270000e+002
    endloop
  endfacet
  facet normal -1.564371e-001 -9.876879e-001 -0.000000e+000
    outer loop
      vertex  1.576245e+002 1.291461e+002 1.270000e+002
      vertex  1.478132e+002 1.307001e+002 3.175000e+001
      vertex  1.576245e+002 1.291461e+002 3.175000e+001
    endloop
  endfacet
  facet normal -4.539902e-001 -8.910067e-001 -0.000000e+000
    outer loop
      vertex  1.576245e+002 1.291461e+002 1.270000e+002
      vertex  1.576245e+002 1.291461e+002 3.175000e+001
      vertex  1.664754e+002 1.246364e+002 1.270000e+002
    endloop
  endfacet
  facet normal -4.539902e-001 -8.910067e-001 -0.000000e+000
    outer loop
      vertex  1.664754e+002 1.246364e+002 1.270000e+002
      vertex  1.576245e+002 1.291461e+002 3.175000e+001
      vertex  1.664754e+002 1.246364e+002 3.175000e+001
    endloop
  endfacet
  facet normal -7.071068e-001 -7.071068e-001 -0.000000e+000
    outer loop
      vertex  1.664754e+002 1.246364e+002 1.270000e+002
      vertex  1.664754e+002 1.246364e+002 3.175000e+001
      vertex  1.734995e+002 1.176123e+002 1.270000e+002
    endloop
  endfacet
  facet normal -7.071068e-001 -7.071068e-001 -0.000000e+000
    outer loop
      vertex  1.734995e+002 1.176123e+002 1.270000e+002
      vertex  1.664754e+002 1.246364e+002 3.175000e+001
      vertex  1.734995e+002 1.176123e+002 3.175000e+001
    endloop
  endfacet
  facet normal -8.910069e-001 -4.539899e-001 -0.000000e+000
    outer loop
      vertex  1.734995e+002 1.176123e+002 1.270000e+002
      vertex  1.734995e+002 1.176123e+002 3.175000e+001
      vertex  1.780092e+002 1.087614e+002 1.270000e+002
    endloop
  endfacet
  facet normal -8.910069e-001 -4.539899e-001 -0.000000e+000
    outer loop
      vertex  1.780092e+002 1.087614e+002 1.270000e+002
      vertex  1.734995e+002 1.176123e+002 3.175000e+001
      vertex  1.780092e+002 1.087614e+002 3.175000e+001
    endloop
  endfacet
  facet normal -9.876886e-001 -1.564331e-001 -0.000000e+000
    outer loop
      vertex  1.780092e+002 1.087614e+002 1.270000e+002
      vertex  1.780092e+002 1.087614e+002 3.175000e+001
      vertex  1.795632e+002 9.895007e+001 1.270000e+002
    endloop
  endfacet
  facet normal -9.876886e-001 -1.564331e-001 -0.000000e+000
    outer loop
      vertex  1.795632e+002 9.895007e+001 1.270000e+002
      vertex  1.780092e+002 1.087614e+002 3.175000e+001
      vertex  1.795632e+002 9.895007e+001 3.175000e+001
    endloop
  endfacet
  facet normal -9.876886e-001 1.564328e-001 0.000000e+000
    outer loop
      vertex  1.795632e+002 9.895007e+001 1.270000e+002
      vertex  1.795632e+002 9.895007e+001 3.175000e+001
      vertex  1.780092e+002 8.913878e+001 1.270000e+002
    endloop
  endfacet
  facet normal -9.876886e-001 1.564328e-001 0.000000e+000
    outer loop
      vertex  1.780092e+002 8.913878e+001 1.270000e+002
      vertex  1.795632e+002 9.895007e+001 3.175000e+001
      vertex  1.780092e+002 8.913878e+001 3.175000e+001
    endloop
  endfacet
  facet normal -8.910064e-001 4.539908e-001 0.000000e+000
    outer loop
      vertex  1.780092e+002 8.913878e+001 1.270000e+002
      vertex  1.780092e+002 8.913878e+001 3.175000e+001
      vertex  1.734995e+002 8.028790e+001 1.270000e+002
    endloop
  endfacet
  facet normal -8.910064e-001 4.539908e-001 0.000000e+000
    outer loop
      vertex  1.734995e+002 8.028790e+001 1.270000e+002
      vertex  1.780092e+002 8.913878e+001 3.175000e+001
      vertex  1.734995e+002 8.028790e+001 3.175000e+001
    endloop
  endfacet
  facet normal -7.071068e-001 7.071068e-001 0.000000e+000
    outer loop
      vertex  1.734995e+002 8.028790e+001 1.270000e+002
      vertex  1.734995e+002 8.028790e+001 3.175000e+001
      vertex  1.664754e+002 7.326378e+001 1.270000e+002
    endloop
  endfacet
  facet normal -7.071068e-001 7.071068e-001 0.000000e+000
    outer loop
      vertex  1.664754e+002 7.326378e+001 1.270000e+002
      vertex  1.734995e+002 8.028790e+001 3.175000e+001
      vertex  1.664754e+002 7.326378e+001 3.175000e+001
    endloop
  endfacet
  facet normal -4.539908e-001 8.910064e-001 0.000000e+000
    outer loop
      vertex  1.664754e+002 7.326378e+001 1.270000e+002
      vertex  1.664754e+002 7.326378e+001 3.175000e+001
      vertex  1.576245e+002 6.875403e+001 1.270000e+002
    endloop
  endfacet
  facet normal -4.539908e-001 8.910064e-001 0.000000e+000
    outer loop
      vertex  1.576245e+002 6.875403e+001 1.270000e+002
      vertex  1.664754e+002 7.326378e+001 3.175000e+001
      vertex  1.576245e+002 6.875403e+001 3.175000e+001
    endloop
  endfacet
  facet normal -1.564341e-001 9.876884e-001 0.000000e+000
    outer loop
      vertex  1.576245e+002 6.875403e+001 1.270000e+002
      vertex  1.576245e+002 6.875403e+001 3.175000e+001
      vertex  1.478132e+002 6.720007e+001 1.270000e+002
    endloop
  endfacet
  facet normal -1.564341e-001 9.876884e-001 0.000000e+000
    outer loop
      vertex  1.478132e+002 6.720007e+001 1.270000e+002
      vertex  1.576245e+002 6.875403e+001 3.175000e+001
      vertex  1.478132e+002 6.720007e+001 3.175000e+001
    endloop
  endfacet
  facet normal -9.876886e-001 1.564328e-001 0.000000e+000
    outer loop
      vertex  1.478132e+002 6.720007e+001 1.270000e+002
      vertex  1.478132e+002 6.720007e+001 3.175000e+001
      vertex  1.462592e+002 5.738877e+001 1.270000e+002
    endloop
  endfacet
  facet normal -9.876886e-001 1.564328e-001 0.000000e+000
    outer loop
      vertex  1.462592e+002 5.738877e+001 1.270000e+002
      vertex  1.478132e+002 6.720007e+001 3.175000e+001
      vertex  1.462592e+002 5.738877e+001 3.175000e+001
    endloop
  endfacet
  facet normal -8.910064e-001 4.539908e-001 0.000000e+000
    outer loop
      vertex  1.462592e+002 5.738877e+001 1.270000e+002
      vertex  1.462592e+002 5.738877e+001 3.175000e+001
      vertex  1.417495e+002 4.853790e+001 1.270000e+002
    endloop
  endfacet
  facet normal -8.910064e-001 4.539908e-001 0.000000e+000
    outer loop
      vertex  1.417495e+002 4.853790e+001 1.270000e+002
      vertex  1.462592e+002 5.738877e+001 3.175000e+001
      vertex  1.417495e+002 4.853790e+001 3.175000e+001
    endloop
  endfacet
  facet normal -7.071068e-001 7.071068e-001 0.000000e+000
    outer loop
      vertex  1.417495e+002 4.853790e+001 1.270000e+002
      vertex  1.417495e+002 4.853790e+001 3.175000e+001
      vertex  1.347254e+002 4.151377e+001 1.270000e+002
    endloop
  endfacet
  facet normal -7.071068e-001 7.071068e-001 0.000000e+000
    outer loop
      vertex  1.347254e+002 4.151377e+001 1.270000e+002
      vertex  1.417495e+002 4.853790e+001 3.175000e+001
      vertex  1.347254e+002 4.151377e+001 3.175000e+001
    endloop
  endfacet
  facet normal -4.539896e-001 8.910070e-001 0.000000e+000
    outer loop
      vertex  1.347254e+002 4.151377e+001 1.270000e+002
      vertex  1.347254e+002 4.151377e+001 3.175000e+001
      vertex  1.258745e+002 3.700402e+001 1.270000e+002
    endloop
  endfacet
  facet normal -4.539896e-001 8.910070e-001 0.000000e+000
    outer loop
      vertex  1.258745e+002 3.700402e+001 1.270000e+002
      vertex  1.347254e+002 4.151377e+001 3.175000e+001
      vertex  1.258745e+002 3.700402e+001 3.175000e+001
    endloop
  endfacet
  facet normal -1.564342e-001 9.876884e-001 0.000000e+000
    outer loop
      vertex  1.258745e+002 3.700402e+001 1.270000e+002
      vertex  1.258745e+002 3.700402e+001 3.175000e+001
      vertex  1.160632e+002 3.545007e+001 1.270000e+002
    endloop
  endfacet
  facet normal -1.564342e-001 9.876884e-001 0.000000e+000
    outer loop
      vertex  1.160632e+002 3.545007e+001 1.270000e+002
      vertex  1.258745e+002 3.700402e+001 3.175000e+001
      vertex  1.160632e+002 3.545007e+001 3.175000e+001
    endloop
  endfacet
  facet normal 1.564340e-001 9.876884e-001 0.000000e+000
    outer loop
      vertex  1.160632e+002 3.545007e+001 1.270000e+002
      vertex  1.160632e+002 3.545007e+001 3.175000e+001
      vertex  1.062519e+002 3.700402e+001 1.270000e+002
    endloop
  endfacet
  facet normal 1.564340e-001 9.876884e-001 0.000000e+000
    outer loop
      vertex  1.062519e+002 3.700402e+001 1.270000e+002
      vertex  1.160632e+002 3.545007e+001 3.175000e+001
      vertex  1.062519e+002 3.700402e+001 3.175000e+001
    endloop
  endfacet
  facet normal 4.539908e-001 8.910064e-001 0.000000e+000
    outer loop
      vertex  1.062519e+002 3.700402e+001 1.270000e+002
      vertex  1.062519e+002 3.700402e+001 3.175000e+001
      vertex  9.740100e+001 4.151377e+001 1.270000e+002
    endloop
  endfacet
  facet normal 4.539908e-001 8.910064e-001 0.000000e+000
    outer loop
      vertex  9.740100e+001 4.151377e+001 1.270000e+002
      vertex  1.062519e+002 3.700402e+001 3.175000e+001
      vertex  9.740100e+001 4.151377e+001 3.175000e+001
    endloop
  endfacet
  facet normal 7.071068e-001 7.071068e-001 0.000000e+000
    outer loop
      vertex  9.740100e+001 4.151377e+001 1.270000e+002
      vertex  9.740100e+001 4.151377e+001 3.175000e+001
      vertex  9.037688e+001 4.853790e+001 1.270000e+002
    endloop
  endfacet
  facet normal 7.071068e-001 7.071068e-001 0.000000e+000
    outer loop
      vertex  9.037688e+001 4.853790e+001 1.270000e+002
      vertex  9.740100e+001 4.151377e+001 3.175000e+001
      vertex  9.037688e+001 4.853790e+001 3.175000e+001
    endloop
  endfacet
  facet normal 8.910064e-001 4.539908e-001 0.000000e+000
    outer loop
      vertex  9.037688e+001 4.853790e+001 1.270000e+002
      vertex  9.037688e+001 4.853790e+001 3.175000e+001
      vertex  8.586713e+001 5.738877e+001 1.270000e+002
    endloop
  endfacet
  facet normal 8.910064e-001 4.539908e-001 0.000000e+000
    outer loop
      vertex  8.586713e+001 5.738877e+001 1.270000e+002
      vertex  9.037688e+001 4.853790e+001 3.175000e+001
      vertex  8.586713e+001 5.738877e+001 3.175000e+001
    endloop
  endfacet
  facet normal 9.876884e-001 1.564343e-001 0.000000e+000
    outer loop
      vertex  8.586713e+001 5.738877e+001 1.270000e+002
      vertex  8.586713e+001 5.738877e+001 3.175000e+001
      vertex  8.431317e+001 6.720007e+001 1.270000e+002
    endloop
  endfacet
  facet normal 9.876884e-001 1.564343e-001 0.000000e+000
    outer loop
      vertex  8.431317e+001 6.720007e+001 1.270000e+002
      vertex  8.586713e+001 5.738877e+001 3.175000e+001
      vertex  8.431317e+001 6.720007e+001 3.175000e+001
    endloop
  endfacet
  facet normal 0.000000e+000 0.000000e+000 1.000000e+000
    outer loop
      vertex  1.734995e+002 8.028790e+001 1.270000e+002
      vertex  1.664754e+002 7.326378e+001 1.270000e+002
      vertex  2.321263e+002 0.000000e+000 1.270000e+002
    endloop
  endfacet
  facet normal 0.000000e+000 0.000000e+000 1.000000e+000
    outer loop
      vertex  2.321263e+002 0.000000e+000 1.270000e+002
      vertex  1.664754e+002 7.326378e+001 1.270000e+002
      vertex  1.576245e+002 6.875403e+001 1.270000e+002
    endloop
  endfacet
  facet normal 0.000000e+000 0.000000e+000 1.000000e+000
    outer loop
      vertex  2.321263e+002 0.000000e+000 1.270000e+002
      vertex  1.576245e+002 6.875403e+001 1.270000e+002
      vertex  1.478132e+002 6.720007e+001 1.270000e+002
    endloop
  endfacet
  facet normal 0.000000e+000 0.000000e+000 1.000000e+000
    outer loop
      vertex  5.862690e+001 8.028790e+001 1.270000e+002
      vertex  5.411713e+001 8.913878e+001 1.270000e+002
      vertex  0.000000e+000 0.000000e+000 1.270000e+002
    endloop
  endfacet
  facet normal 0.000000e+000 0.000000e+000 1.000000e+000
    outer loop
      vertex  0.000000e+000 0.000000e+000 1.270000e+002
      vertex  5.411713e+001 8.913878e+001 1.270000e+002
      vertex  5.256318e+001 9.895007e+001 1.270000e+002
    endloop
  endfacet
  facet normal 0.000000e+000 0.000000e+000 1.000000e+000
    outer loop
      vertex  0.000000e+000 0.000000e+000 1.270000e+002
      vertex  5.256318e+001 9.895007e+001 1.270000e+002
      vertex  0.000000e+000 1.979001e+002 1.270000e+002
    endloop
  endfacet
  facet normal 0.000000e+000 0.000000e+000 1.000000e+000
    outer loop
      vertex  0.000000e+000 1.979001e+002 1.270000e+002
      vertex  5.256318e+001 9.895007e+001 1.270000e+002
      vertex  5.411713e+001 1.087614e+002 1.270000e+002
    endloop
  endfacet
  facet normal 0.000000e+000 0.000000e+000 1.000000e+000
    outer loop
      vertex  0.000000e+000 1.979001e+002 1.270000e+002
      vertex  5.411713e+001 1.087614e+002 1.270000e+002
      vertex  5.862690e+001 1.176123e+002 1.270000e+002
    endloop
  endfacet
  facet normal 0.000000e+000 0.000000e+000 1.000000e+000
    outer loop
      vertex  8.431317e+001 6.720007e+001 1.270000e+002
      vertex  7.450188e+001 6.875403e+001 1.270000e+002
      vertex  0.000000e+000 0.000000e+000 1.270000e+002
    endloop
  endfacet
  facet normal 0.000000e+000 0.000000e+000 1.000000e+000
    outer loop
      vertex  0.000000e+000 0.000000e+000 1.270000e+002
      vertex  7.450188e+001 6.875403e+001 1.270000e+002
      vertex  6.565100e+001 7.326378e+001 1.270000e+002
    endloop
  endfacet
  facet normal 0.000000e+000 0.000000e+000 1.000000e+000
    outer loop
      vertex  0.000000e+000 0.000000e+000 1.270000e+002
      vertex  6.565100e+001 7.326378e+001 1.270000e+002
      vertex  5.862690e+001 8.028790e+001 1.270000e+002
    endloop
  endfacet
  facet normal 0.000000e+000 -0.000000e+000 1.000000e+000
    outer loop
      vertex  5.862690e+001 1.176123e+002 1.270000e+002
      vertex  6.565100e+001 1.246364e+002 1.270000e+002
      vertex  0.000000e+000 1.979001e+002 1.270000e+002
    endloop
  endfacet
  facet normal 0.000000e+000 0.000000e+000 1.000000e+000
    outer loop
      vertex  0.000000e+000 1.979001e+002 1.270000e+002
      vertex  6.565100e+001 1.246364e+002 1.270000e+002
      vertex  7.450188e+001 1.291461e+002 1.270000e+002
    endloop
  endfacet
  facet normal 0.000000e+000 0.000000e+000 1.000000e+000
    outer loop
      vertex  0.000000e+000 1.979001e+002 1.270000e+002
      vertex  7.450188e+001 1.291461e+002 1.270000e+002
      vertex  8.431317e+001 1.307001e+002 1.270000e+002
    endloop
  endfacet
  facet normal 0.000000e+000 0.000000e+000 1.000000e+000
    outer loop
      vertex  1.478132e+002 6.720007e+001 1.270000e+002
      vertex  1.462592e+002 5.738877e+001 1.270000e+002
      vertex  2.321263e+002 0.000000e+000 1.270000e+002
    endloop
  endfacet
  facet normal 0.000000e+000 0.000000e+000 1.000000e+000
    outer loop
      vertex  2.321263e+002 0.000000e+000 1.270000e+002
      vertex  1.462592e+002 5.738877e+001 1.270000e+002
      vertex  1.417495e+002 4.853790e+001 1.270000e+002
    endloop
  endfacet
  facet normal 0.000000e+000 0.000000e+000 1.000000e+000
    outer loop
      vertex  2.321263e+002 0.000000e+000 1.270000e+002
      vertex  1.417495e+002 4.853790e+001 1.270000e+002
      vertex  1.347254e+002 4.151377e+001 1.270000e+002
    endloop
  endfacet
  facet normal 0.000000e+000 0.000000e+000 1.000000e+000
    outer loop
      vertex  9.740100e+001 4.151377e+001 1.270000e+002
      vertex  9.037688e+001 4.853790e+001 1.270000e+002
      vertex  0.000000e+000 0.000000e+000 1.270000e+002
    endloop
  endfacet
  facet normal 0.000000e+000 0.000000e+000 1.000000e+000
    outer loop
      vertex  0.000000e+000 0.000000e+000 1.270000e+002
      vertex  9.037688e+001 4.853790e+001 1.270000e+002
      vertex  8.586713e+001 5.738877e+001 1.270000e+002
    endloop
  endfacet
  facet normal 0.000000e+000 0.000000e+000 1.000000e+000
    outer loop
      vertex  0.000000e+000 0.000000e+000 1.270000e+002
      vertex  8.586713e+001 5.738877e+001 1.270000e+002
      vertex  8.431317e+001 6.720007e+001 1.270000e+002
    endloop
  endfacet
  facet normal 0.000000e+000 -0.000000e+000 1.000000e+000
    outer loop
      vertex  8.431317e+001 1.307001e+002 1.270000e+002
      vertex  8.586713e+001 1.405114e+002 1.270000e+002
      vertex  0.000000e+000 1.979001e+002 1.270000e+002
    endloop
  endfacet
  facet normal 0.000000e+000 0.000000e+000 1.000000e+000
    outer loop
      vertex  0.000000e+000 1.979001e+002 1.270000e+002
      vertex  8.586713e+001 1.405114e+002 1.270000e+002
      vertex  9.037688e+001 1.493622e+002 1.270000e+002
    endloop
  endfacet
  facet normal 0.000000e+000 0.000000e+000 1.000000e+000
    outer loop
      vertex  0.000000e+000 1.979001e+002 1.270000e+002
      vertex  9.037688e+001 1.493622e+002 1.270000e+002
      vertex  9.740100e+001 1.563864e+002 1.270000e+002
    endloop
  endfacet
  facet normal 0.000000e+000 -0.000000e+000 1.000000e+000
    outer loop
      vertex  9.740100e+001 1.563864e+002 1.270000e+002
      vertex  1.062519e+002 1.608961e+002 1.270000e+002
      vertex  0.000000e+000 1.979001e+002 1.270000e+002
    endloop
  endfacet
  facet normal 0.000000e+000 0.000000e+000 1.000000e+000
    outer loop
      vertex  0.000000e+000 1.979001e+002 1.270000e+002
      vertex  1.062519e+002 1.608961e+002 1.270000e+002
      vertex  1.160632e+002 1.624501e+002 1.270000e+002
    endloop
  endfacet
  facet normal -0.000000e+000 0.000000e+000 1.000000e+000
    outer loop
      vertex  0.000000e+000 1.979001e+002 1.270000e+002
      vertex  1.160632e+002 1.624501e+002 1.270000e+002
      vertex  2.321263e+002 1.979001e+002 1.270000e+002
    endloop
  endfacet
  facet normal 0.000000e+000 0.000000e+000 1.000000e+000
    outer loop
      vertex  2.321263e+002 1.979001e+002 1.270000e+002
      vertex  1.160632e+002 1.624501e+002 1.270000e+002
      vertex  1.258745e+002 1.608961e+002 1.270000e+002
    endloop
  endfacet
  facet normal 0.000000e+000 0.000000e+000 1.000000e+000
    outer loop
      vertex  2.321263e+002 1.979001e+002 1.270000e+002
      vertex  1.258745e+002 1.608961e+002 1.270000e+002
      vertex  1.347254e+002 1.563864e+002 1.270000e+002
    endloop
  endfacet
  facet normal -0.000000e+000 0.000000e+000 1.000000e+000
    outer loop
      vertex  1.347254e+002 1.563864e+002 1.270000e+002
      vertex  1.417495e+002 1.493622e+002 1.270000e+002
      vertex  2.321263e+002 1.979001e+002 1.270000e+002
    endloop
  endfacet
  facet normal 0.000000e+000 0.000000e+000 1.000000e+000
    outer loop
      vertex  2.321263e+002 1.979001e+002 1.270000e+002
      vertex  1.417495e+002 1.493622e+002 1.270000e+002
      vertex  1.462592e+002 1.405114e+002 1.270000e+002
    endloop
  endfacet
  facet normal 0.000000e+000 0.000000e+000 1.000000e+000
    outer loop
      vertex  2.321263e+002 1.979001e+002 1.270000e+002
      vertex  1.462592e+002 1.405114e+002 1.270000e+002
      vertex  1.478132e+002 1.307001e+002 1.270000e+002
    endloop
  endfacet
  facet normal 0.000000e+000 0.000000e+000 1.000000e+000
    outer loop
      vertex  1.347254e+002 4.151377e+001 1.270000e+002
      vertex  1.258745e+002 3.700402e+001 1.270000e+002
      vertex  2.321263e+002 0.000000e+000 1.270000e+002
    endloop
  endfacet
  facet normal 0.000000e+000 0.000000e+000 1.000000e+000
    outer loop
      vertex  2.321263e+002 0.000000e+000 1.270000e+002
      vertex  1.258745e+002 3.700402e+001 1.270000e+002
      vertex  1.160632e+002 3.545007e+001 1.270000e+002
    endloop
  endfacet
  facet normal 0.000000e+000 0.000000e+000 1.000000e+000
    outer loop
      vertex  2.321263e+002 0.000000e+000 1.270000e+002
      vertex  1.160632e+002 3.545007e+001 1.270000e+002
      vertex  0.000000e+000 0.000000e+000 1.270000e+002
    endloop
  endfacet
  facet normal 0.000000e+000 0.000000e+000 1.000000e+000
    outer loop
      vertex  0.000000e+000 0.000000e+000 1.270000e+002
      vertex  1.160632e+002 3.545007e+001 1.270000e+002
      vertex  1.062519e+002 3.700402e+001 1.270000e+002
    endloop
  endfacet
  facet normal 0.000000e+000 0.000000e+000 1.000000e+000
    outer loop
      vertex  0.000000e+000 0.000000e+000 1.270000e+002
      vertex  1.062519e+002 3.700402e+001 1.270000e+002
      vertex  9.740100e+001 4.151377e+001 1.270000e+002
    endloop
  endfacet
  facet normal -0.000000e+000 0.000000e+000 1.000000e+000
    outer loop
      vertex  1.478132e+002 1.307001e+002 1.270000e+002
      vertex  1.576245e+002 1.291461e+002 1.270000e+002
      vertex  2.321263e+002 1.979001e+002 1.270000e+002
    endloop
  endfacet
  facet normal 0.000000e+000 0.000000e+000 1.000000e+000
    outer loop
      vertex  2.321263e+002 1.979001e+002 1.270000e+002
      vertex  1.576245e+002 1.291461e+002 1.270000e+002
      vertex  1.664754e+002 1.246364e+002 1.270000e+002
    endloop
  endfacet
  facet normal 0.000000e+000 0.000000e+000 1.000000e+000
    outer loop
      vertex  2.321263e+002 1.979001e+002 1.270000e+002
      vertex  1.664754e+002 1.246364e+002 1.270000e+002
      vertex  1.734995e+002 1.176123e+002 1.270000e+002
    endloop
  endfacet
  facet normal -0.000000e+000 0.000000e+000 1.000000e+000
    outer loop
      vertex  1.734995e+002 1.176123e+002 1.270000e+002
      vertex  1.780092e+002 1.087614e+002 1.270000e+002
      vertex  2.321263e+002 1.979001e+002 1.270000e+002
    endloop
  endfacet
  facet normal 0.000000e+000 0.000000e+000 1.000000e+000
    outer loop
      vertex  2.321263e+002 1.979001e+002 1.270000e+002
      vertex  1.780092e+002 1.087614e+002 1.270000e+002
      vertex  1.795632e+002 9.895007e+001 1.270000e+002
    endloop
  endfacet
  facet normal 0.000000e+000 0.000000e+000 1.000000e+000
    outer loop
      vertex  2.321263e+002 1.979001e+002 1.270000e+002
      vertex  1.795632e+002 9.895007e+001 1.270000e+002
      vertex  2.321263e+002 0.000000e+000 1.270000e+002
    endloop
  endfacet
  facet normal 0.000000e+000 0.000000e+000 1.000000e+000
    outer loop
      vertex  2.321263e+002 0.000000e+000 1.270000e+002
      vertex  1.795632e+002 9.895007e+001 1.270000e+002
      vertex  1.780092e+002 8.913878e+001 1.270000e+002
    endloop
  endfacet
  facet normal 0.000000e+000 0.000000e+000 1.000000e+000
    outer loop
      vertex  2.321263e+002 0.000000e+000 1.270000e+002
      vertex  1.780092e+002 8.913878e+001 1.270000e+002
      vertex  1.734995e+002 8.028790e+001 1.270000e+002
    endloop
  endfacet
  facet normal 0.000000e+000 -1.000000e+000 0.000000e+000
    outer loop
      vertex  2.321263e+002 0.000000e+000 0.000000e+000
      vertex  2.321263e+002 0.000000e+000 1.270000e+002
      vertex  0.000000e+000 0.000000e+000 0.000000e+000
    endloop
  endfacet
  facet normal 0.000000e+000 -1.000000e+000 0.000000e+000
    outer loop
      vertex  0.000000e+000 0.000000e+000 0.000000e+000
      vertex  2.321263e+002 0.000000e+000 1.270000e+002
      vertex  0.000000e+000 0.000000e+000 1.270000e+002
    endloop
  endfacet
  facet normal 1.000000e+000 0.000000e+000 -0.000000e+000
    outer loop
      vertex  2.321263e+002 1.979001e+002 0.000000e+000
      vertex  2.321263e+002 1.979001e+002 1.270000e+002
      vertex  2.321263e+002 0.000000e+000 0.000000e+000
    endloop
  endfacet
  facet normal 1.000000e+000 0.000000e+000 0.000000e+000
    outer loop
      vertex  2.321263e+002 0.000000e+000 0.000000e+000
      vertex  2.321263e+002 1.979001e+002 1.270000e+002
      vertex  2.321263e+002 0.000000e+000 1.270000e+002
    endloop
  endfacet
  facet normal 0.000000e+000 1.000000e+000 0.000000e+000
    outer loop
      vertex  0.000000e+000 1.979001e+002 0.000000e+000
      vertex  0.000000e+000 1.979001e+002 1.270000e+002
      vertex  2.321263e+002 1.979001e+002 0.000000e+000
    endloop
  endfacet
  facet normal 0.000000e+000 1.000000e+000 -0.000000e+000
    outer loop
      vertex  2.321263e+002 1.979001e+002 0.000000e+000
      vertex  0.000000e+000 1.979001e+002 1.270000e+002
      vertex  2.321263e+002 1.979001e+002 1.270000e+002
    endloop
  endfacet
  facet normal -1.000000e+000 0.000000e+000 0.000000e+000
    outer loop
      vertex  0.000000e+000 0.000000e+000 0.000000e+000
      vertex  0.000000e+000 0.000000e+000 1.270000e+002
      vertex  0.000000e+000 1.979001e+002 0.000000e+000
    endloop
  endfacet
  facet normal -1.000000e+000 0.000000e+000 0.000000e+000
    outer loop
      vertex  0.000000e+000 1.979001e+002 0.000000e+000
      vertex  0.000000e+000 0.000000e+000 1.270000e+002
      vertex  0.000000e+000 1.979001e+002 1.270000e+002
    endloop
  endfacet
  facet normal 0.000000e+000 0.000000e+000 -1.000000e+000
    outer loop
      vertex  2.321263e+002 0.000000e+000 0.000000e+000
      vertex  0.000000e+000 0.000000e+000 0.000000e+000
      vertex  2.321263e+002 1.979001e+002 0.000000e+000
    endloop
  endfacet
  facet normal -0.000000e+000 0.000000e+000 -1.000000e+000
    outer loop
      vertex  2.321263e+002 1.979001e+002 0.000000e+000
      vertex  0.000000e+000 0.000000e+000 0.000000e+000
      vertex  0.000000e+000 1.979001e+002 0.000000e+000
    endloop
  endfacet
endsolid vcg
