solid p1fixed
   facet normal -3.892485e-002 2.015930e-002 -9.990388e-001
      outer loop
         vertex 6.557748e+001 7.007870e+002 6.608447e+001
         vertex 8.826116e+001 7.007433e+002 6.499905e+001
         vertex 5.887286e+001 5.257997e+002 6.326726e+001
      endloop
   endfacet
   facet normal 4.655720e-002 -9.435005e-003 -9.988711e-001
      outer loop
         vertex 4.142837e+002 7.001149e+002 4.934547e+001
         vertex 4.404026e+002 7.000645e+002 5.178828e+001
         vertex 4.402120e+002 5.250646e+002 5.208655e+001
      endloop
   endfacet
   facet normal 2.344985e-002 -2.367039e-002 -9.994448e-001
      outer loop
         vertex 3.484197e+002 2.405721e-001 6.510084e+001
         vertex 3.223576e+002 2.908114e-001 6.359866e+001
         vertex 3.226407e+002 3.502909e+002 5.674814e+001
      endloop
   endfacet
   facet normal -9.348354e-002 -2.182330e-002 -9.953816e-001
      outer loop
         vertex 3.896638e+002 1.610667e-001 6.334140e+001
         vertex 3.810130e+002 1.777427e-001 6.371044e+001
         vertex 4.104793e+002 1.751213e+002 5.759864e+001
      endloop
   endfacet
   facet normal -1.214216e-001 1.647804e-002 -9.924642e-001
      outer loop
         vertex 8.805400e+001 3.507431e+002 5.785374e+001
         vertex 5.887558e+001 1.757990e+002 5.816503e+001
         vertex 5.887421e+001 3.507994e+002 6.071614e+001
      endloop
   endfacet
   facet normal -1.764165e-001 1.075580e-002 -9.842569e-001
      outer loop
         vertex 5.887421e+001 3.507994e+002 6.071614e+001
         vertex 5.887558e+001 1.757990e+002 5.816503e+001
         vertex 2.989628e+001 1.758549e+002 6.424854e+001
      endloop
   endfacet
   facet normal -3.842959e-001 -1.127667e-002 -9.231411e-001
      outer loop
         vertex 1.362866e+000 9.095863e-001 7.549807e+001
         vertex 1.025545e+000 1.759106e+002 7.282861e+001
         vertex 1.591939e+001 8.815261e-001 6.961073e+001
      endloop
   endfacet
   facet normal -3.321929e-001 -8.165482e-003 -9.431762e-001
      outer loop
         vertex 1.591939e+001 8.815261e-001 6.961073e+001
         vertex 1.025545e+000 1.759106e+002 7.282861e+001
         vertex 1.544653e+001 1.758828e+002 6.820550e+001
      endloop
   endfacet
   facet normal -3.333073e-001 -1.574765e-003 -9.428169e-001
      outer loop
         vertex 1.591939e+001 8.815261e-001 6.961073e+001
         vertex 1.544653e+001 1.758828e+002 6.820550e+001
         vertex 3.016583e+001 8.540635e-001 6.384880e+001
      endloop
   endfacet
   facet normal -2.861412e-001 8.411227e-004 -9.581871e-001
      outer loop
         vertex 3.016583e+001 8.540635e-001 6.384880e+001
         vertex 1.544653e+001 1.758828e+002 6.820550e+001
         vertex 2.989628e+001 1.758549e+002 6.424854e+001
      endloop
   endfacet
   facet normal -2.939178e-001 5.185483e-003 -9.558166e-001
      outer loop
         vertex 3.016583e+001 8.540635e-001 6.384880e+001
         vertex 2.989628e+001 1.758549e+002 6.424854e+001
         vertex 3.569740e+001 8.434004e-001 6.161158e+001
      endloop
   endfacet
   facet normal -2.402832e-001 8.640285e-003 -9.706644e-001
      outer loop
         vertex 3.569740e+001 8.434004e-001 6.161158e+001
         vertex 2.989628e+001 1.758549e+002 6.424854e+001
         vertex 5.887558e+001 1.757990e+002 5.816503e+001
      endloop
   endfacet
   facet normal -2.327623e-001 1.358820e-002 -9.724388e-001
      outer loop
         vertex 3.569740e+001 8.434004e-001 6.161158e+001
         vertex 5.887558e+001 1.757990e+002 5.816503e+001
         vertex 5.898360e+001 7.985121e-001 5.576193e+001
      endloop
   endfacet
   facet normal 1.450935e-002 1.909200e-002 -9.997125e-001
      outer loop
         vertex 1.756247e+002 1.755740e+002 5.207720e+001
         vertex 1.485909e+002 6.257780e-001 4.781134e+001
         vertex 1.465517e+002 3.506303e+002 5.498255e+001
      endloop
   endfacet
   facet normal 1.195625e-002 2.185420e-002 -9.996897e-001
      outer loop
         vertex 1.465517e+002 3.506303e+002 5.498255e+001
         vertex 1.485909e+002 6.257780e-001 4.781134e+001
         vertex 1.460996e+002 6.305804e-001 4.784518e+001
      endloop
   endfacet
   facet normal -1.456224e-002 2.145933e-002 -9.996637e-001
      outer loop
         vertex 1.465517e+002 3.506303e+002 5.498255e+001
         vertex 1.460996e+002 6.305804e-001 4.784518e+001
         vertex 1.172822e+002 3.506868e+002 5.600018e+001
      endloop
   endfacet
   facet normal -2.028973e-002 2.375973e-002 -9.995118e-001
      outer loop
         vertex 1.460996e+002 6.305804e-001 4.784518e+001
         vertex 1.169147e+002 6.868395e-001 4.824163e+001
         vertex 1.172822e+002 3.506868e+002 5.600018e+001
      endloop
   endfacet
   facet normal -5.067634e-002 2.477304e-002 -9.984078e-001
      outer loop
         vertex 1.172822e+002 3.506868e+002 5.600018e+001
         vertex 1.169147e+002 6.868395e-001 4.824163e+001
         vertex 1.075992e+002 7.047967e-001 4.836817e+001
      endloop
   endfacet
   facet normal -6.397215e-002 2.275346e-002 -9.976923e-001
      outer loop
         vertex 1.172822e+002 3.506868e+002 5.600018e+001
         vertex 1.075992e+002 7.047967e-001 4.836817e+001
         vertex 8.805400e+001 3.507431e+002 5.785374e+001
      endloop
   endfacet
   facet normal -8.903099e-002 2.381525e-002 -9.957441e-001
      outer loop
         vertex 8.805400e+001 3.507431e+002 5.785374e+001
         vertex 1.075992e+002 7.047967e-001 4.836817e+001
         vertex 8.788969e+001 7.427904e-001 5.076504e+001
      endloop
   endfacet
   facet normal -1.235800e-001 2.004598e-002 -9.921321e-001
      outer loop
         vertex 8.805400e+001 3.507431e+002 5.785374e+001
         vertex 8.788969e+001 7.427904e-001 5.076504e+001
         vertex 5.887558e+001 1.757990e+002 5.816503e+001
      endloop
   endfacet
   facet normal -1.572634e-001 2.041993e-002 -9.873456e-001
      outer loop
         vertex 5.887558e+001 1.757990e+002 5.816503e+001
         vertex 8.788969e+001 7.427904e-001 5.076504e+001
         vertex 7.041617e+001 7.764737e-001 5.288999e+001
      endloop
   endfacet
   facet normal -1.900250e-001 1.809329e-002 -9.816125e-001
      outer loop
         vertex 5.887558e+001 1.757990e+002 5.816503e+001
         vertex 7.041617e+001 7.764737e-001 5.288999e+001
         vertex 5.898360e+001 7.985121e-001 5.576193e+001
      endloop
   endfacet
   facet normal 8.145870e-002 -1.704425e-002 -9.965310e-001
      outer loop
         vertex 2.930964e+002 1.753475e+002 5.905605e+001
         vertex 2.929181e+002 3.475614e-001 6.190180e+001
         vertex 2.908147e+002 3.516161e-001 6.178056e+001
      endloop
   endfacet
   facet normal 7.234173e-002 -1.121016e-002 -9.973169e-001
      outer loop
         vertex 2.930964e+002 1.753475e+002 5.905605e+001
         vertex 2.908147e+002 3.516161e-001 6.178056e+001
         vertex 2.343209e+002 1.754608e+002 5.527722e+001
      endloop
   endfacet
   facet normal -1.257326e-001 -7.689883e-003 -9.920344e-001
      outer loop
         vertex 4.399641e+002 3.500648e+002 5.274140e+001
         vertex 4.397162e+002 1.750649e+002 5.339626e+001
         vertex 4.104793e+002 1.751213e+002 5.759864e+001
      endloop
   endfacet
   facet normal -1.992921e-001 1.115613e-002 -9.798766e-001
      outer loop
         vertex 4.692214e+002 3.500083e+002 4.950669e+001
         vertex 4.688841e+002 1.750087e+002 4.698668e+001
         vertex 4.543095e+002 1.750368e+002 5.048837e+001
      endloop
   endfacet
   facet normal -2.540297e-001 -1.930027e-003 -9.671945e-001
      outer loop
         vertex 4.539133e+002 3.721428e-002 4.945642e+001
         vertex 4.393181e+002 6.534908e-002 5.374925e+001
         vertex 4.397162e+002 1.750649e+002 5.339626e+001
      endloop
   endfacet
   facet normal -2.204982e-001 -7.102458e-003 -9.753615e-001
      outer loop
         vertex 4.397162e+002 1.750649e+002 5.339626e+001
         vertex 4.393181e+002 6.534908e-002 5.374925e+001
         vertex 4.267970e+002 8.948588e-002 5.743205e+001
      endloop
   endfacet
   facet normal -1.685964e-001 -1.055992e-002 -9.856286e-001
      outer loop
         vertex 4.397162e+002 1.750649e+002 5.339626e+001
         vertex 4.267970e+002 8.948588e-002 5.743205e+001
         vertex 4.104793e+002 1.751213e+002 5.759864e+001
      endloop
   endfacet
   facet normal -1.638603e-001 -1.549080e-002 -9.863619e-001
      outer loop
         vertex 4.104793e+002 1.751213e+002 5.759864e+001
         vertex 4.267970e+002 8.948588e-002 5.743205e+001
         vertex 4.102027e+002 1.214744e-001 6.007286e+001
      endloop
   endfacet
   facet normal -1.233539e-001 -1.952532e-002 -9.921706e-001
      outer loop
         vertex 4.104793e+002 1.751213e+002 5.759864e+001
         vertex 4.102027e+002 1.214744e-001 6.007286e+001
         vertex 3.896638e+002 1.610667e-001 6.334140e+001
      endloop
   endfacet
   facet normal 6.681360e-002 3.527500e-004 -9.977654e-001
      outer loop
         vertex 4.404026e+002 7.000645e+002 5.178828e+001
         vertex 4.551292e+002 7.000362e+002 5.316561e+001
         vertex 4.548860e+002 5.250363e+002 5.204787e+001
      endloop
   endfacet
   facet normal -1.348850e-002 -2.331852e-002 -9.996371e-001
      outer loop
         vertex 3.523051e+002 7.002344e+002 4.838099e+001
         vertex 3.527636e+002 7.002335e+002 4.835979e+001
         vertex 4.108612e+002 5.251212e+002 5.222132e+001
      endloop
   endfacet
   facet normal 8.558882e-003 -2.069996e-002 -9.997491e-001
      outer loop
         vertex 4.108612e+002 5.251212e+002 5.222132e+001
         vertex 3.527636e+002 7.002335e+002 4.835979e+001
         vertex 4.110459e+002 7.001212e+002 4.929360e+001
      endloop
   endfacet
   facet normal 3.189253e-002 -1.770042e-002 -9.993346e-001
      outer loop
         vertex 4.108612e+002 5.251212e+002 5.222132e+001
         vertex 4.110459e+002 7.001212e+002 4.929360e+001
         vertex 4.142837e+002 7.001149e+002 4.934547e+001
      endloop
   endfacet
   facet normal 1.456812e-002 -1.272571e-002 -9.998129e-001
      outer loop
         vertex 4.142837e+002 7.001149e+002 4.934547e+001
         vertex 4.402120e+002 5.250646e+002 5.208655e+001
         vertex 4.108612e+002 5.251212e+002 5.222132e+001
      endloop
   endfacet
   facet normal -2.233130e-002 -1.171068e-002 -9.996820e-001
      outer loop
         vertex 4.108612e+002 5.251212e+002 5.222132e+001
         vertex 4.402120e+002 5.250646e+002 5.208655e+001
         vertex 4.106703e+002 3.501212e+002 5.490998e+001
      endloop
   endfacet
   facet normal -2.705588e-002 -1.931181e-002 -9.994473e-001
      outer loop
         vertex 4.108612e+002 5.251212e+002 5.222132e+001
         vertex 4.106703e+002 3.501212e+002 5.490998e+001
         vertex 3.523051e+002 7.002344e+002 4.838099e+001
      endloop
   endfacet
   facet normal -3.512957e-002 -2.095681e-002 -9.991630e-001
      outer loop
         vertex 3.523051e+002 7.002344e+002 4.838099e+001
         vertex 4.106703e+002 3.501212e+002 5.490998e+001
         vertex 3.813471e+002 3.501777e+002 5.618536e+001
      endloop
   endfacet
   facet normal -1.877526e-002 -2.343395e-002 -9.995491e-001
      outer loop
         vertex 3.523051e+002 7.002344e+002 4.838099e+001
         vertex 3.813471e+002 3.501777e+002 5.618536e+001
         vertex 3.520016e+002 3.502343e+002 5.674044e+001
      endloop
   endfacet
   facet normal 1.889128e-003 -2.310696e-002 -9.997312e-001
      outer loop
         vertex 3.484197e+002 2.405721e-001 6.510084e+001
         vertex 3.226407e+002 3.502909e+002 5.674814e+001
         vertex 3.520016e+002 3.502343e+002 5.674044e+001
      endloop
   endfacet
   facet normal -7.277822e-003 -1.940481e-002 -9.997852e-001
      outer loop
         vertex 3.520016e+002 3.502343e+002 5.674044e+001
         vertex 3.226407e+002 3.502909e+002 5.674814e+001
         vertex 2.934472e+002 5.253475e+002 5.370671e+001
      endloop
   endfacet
   facet normal -1.544332e-002 -2.169007e-002 -9.996455e-001
      outer loop
         vertex 3.520016e+002 3.502343e+002 5.674044e+001
         vertex 2.934472e+002 5.253475e+002 5.370671e+001
         vertex 3.523051e+002 7.002344e+002 4.838099e+001
      endloop
   endfacet
   facet normal -3.198827e-002 -1.189592e-002 -9.994174e-001
      outer loop
         vertex 3.508444e-001 5.259125e+002 6.748970e+001
         vertex 1.349417e-002 7.009135e+002 6.482024e+001
         vertex 1.497503e+001 5.258843e+002 6.635368e+001
      endloop
   endfacet
   facet normal 1.869604e-003 -5.010543e-003 -9.999857e-001
      outer loop
         vertex 1.497503e+001 5.258843e+002 6.635368e+001
         vertex 1.349417e-002 7.009135e+002 6.482024e+001
         vertex 2.948040e+001 7.008567e+002 6.538843e+001
      endloop
   endfacet
   facet normal -4.186779e-002 1.128464e-003 -9.991225e-001
      outer loop
         vertex 1.497503e+001 5.258843e+002 6.635368e+001
         vertex 2.948040e+001 7.008567e+002 6.538843e+001
         vertex 2.960356e+001 5.258561e+002 6.527209e+001
      endloop
   endfacet
   facet normal -1.987974e-002 8.940271e-003 -9.997624e-001
      outer loop
         vertex 2.960356e+001 5.258561e+002 6.527209e+001
         vertex 2.948040e+001 7.008567e+002 6.538843e+001
         vertex 5.889485e+001 7.007999e+002 6.595561e+001
      endloop
   endfacet
   facet normal -1.564157e-001 -1.209937e-002 -9.876172e-001
      outer loop
         vertex 6.881948e-001 3.509115e+002 7.015915e+001
         vertex 3.508444e-001 5.259125e+002 6.748970e+001
         vertex 1.521078e+001 3.508835e+002 6.727959e+001
      endloop
   endfacet
   facet normal -1.125926e-001 -8.699241e-003 -9.936032e-001
      outer loop
         vertex 1.521078e+001 3.508835e+002 6.727959e+001
         vertex 3.508444e-001 5.259125e+002 6.748970e+001
         vertex 1.497503e+001 5.258843e+002 6.635368e+001
      endloop
   endfacet
   facet normal -1.392274e-001 -2.723929e-003 -9.902567e-001
      outer loop
         vertex 1.521078e+001 3.508835e+002 6.727959e+001
         vertex 1.497503e+001 5.258843e+002 6.635368e+001
         vertex 2.974994e+001 3.508555e+002 6.476031e+001
      endloop
   endfacet
   facet normal -1.023241e-001 2.260008e-004 -9.947511e-001
      outer loop
         vertex 2.974994e+001 3.508555e+002 6.476031e+001
         vertex 1.497503e+001 5.258843e+002 6.635368e+001
         vertex 2.960356e+001 5.258561e+002 6.527209e+001
      endloop
   endfacet
   facet normal -9.873185e-002 7.020103e-003 -9.950893e-001
      outer loop
         vertex 2.974994e+001 3.508555e+002 6.476031e+001
         vertex 2.960356e+001 5.258561e+002 6.527209e+001
         vertex 5.887286e+001 5.257997e+002 6.326726e+001
      endloop
   endfacet
   facet normal -4.881629e-002 1.226117e-002 -9.987325e-001
      outer loop
         vertex 5.887286e+001 5.257997e+002 6.326726e+001
         vertex 2.960356e+001 5.258561e+002 6.527209e+001
         vertex 5.889485e+001 7.007999e+002 6.595561e+001
      endloop
   endfacet
   facet normal -3.021848e-002 1.793933e-002 -9.993823e-001
      outer loop
         vertex 5.887286e+001 5.257997e+002 6.326726e+001
         vertex 5.889485e+001 7.007999e+002 6.595561e+001
         vertex 6.557748e+001 7.007870e+002 6.608447e+001
      endloop
   endfacet
   facet normal -5.037667e-002 4.857020e-003 -9.987185e-001
      outer loop
         vertex 1.760863e+002 5.255737e+002 5.717867e+001
         vertex 2.349979e+002 7.004605e+002 5.522147e+001
         vertex 2.347542e+002 5.254606e+002 5.515499e+001
      endloop
   endfacet
   facet normal -6.016405e-002 -4.637394e-003 -9.981777e-001
      outer loop
         vertex 2.347542e+002 5.254606e+002 5.515499e+001
         vertex 2.349979e+002 7.004605e+002 5.522147e+001
         vertex 2.772472e+002 7.003791e+002 5.185194e+001
      endloop
   endfacet
   facet normal -3.958858e-002 -9.810140e-003 -9.991679e-001
      outer loop
         vertex 2.347542e+002 5.254606e+002 5.515499e+001
         vertex 2.772472e+002 7.003791e+002 5.185194e+001
         vertex 2.934472e+002 5.253475e+002 5.370671e+001
      endloop
   endfacet
   facet normal -5.015088e-002 -1.564431e-002 -9.986191e-001
      outer loop
         vertex 2.934472e+002 5.253475e+002 5.370671e+001
         vertex 2.772472e+002 7.003791e+002 5.185194e+001
         vertex 2.936445e+002 7.003474e+002 5.109367e+001
      endloop
   endfacet
   facet normal -3.291114e-002 -2.017120e-002 -9.992547e-001
      outer loop
         vertex 2.934472e+002 5.253475e+002 5.370671e+001
         vertex 2.936445e+002 7.003474e+002 5.109367e+001
         vertex 3.523051e+002 7.002344e+002 4.838099e+001
      endloop
   endfacet
   facet normal -5.596863e-002 2.150371e-002 -9.982010e-001
      outer loop
         vertex 1.176295e+002 7.006868e+002 6.359377e+001
         vertex 1.486053e+002 7.006270e+002 6.211158e+001
         vertex 1.760863e+002 5.255737e+002 5.717867e+001
      endloop
   endfacet
   facet normal -6.399071e-002 1.850684e-002 -9.977789e-001
      outer loop
         vertex 1.760863e+002 5.255737e+002 5.717867e+001
         vertex 1.486053e+002 7.006270e+002 6.211158e+001
         vertex 1.763349e+002 7.005735e+002 5.990005e+001
      endloop
   endfacet
   facet normal -6.738108e-002 1.072517e-002 -9.976696e-001
      outer loop
         vertex 1.760863e+002 5.255737e+002 5.717867e+001
         vertex 1.763349e+002 7.005735e+002 5.990005e+001
         vertex 2.349979e+002 7.004605e+002 5.522147e+001
      endloop
   endfacet
   facet normal -2.728032e-001 -1.188147e-002 -9.619965e-001
      outer loop
         vertex 1.025545e+000 1.759106e+002 7.282861e+001
         vertex 6.881948e-001 3.509115e+002 7.015915e+001
         vertex 1.544653e+001 1.758828e+002 6.820550e+001
      endloop
   endfacet
   facet normal -2.247647e-001 -8.713314e-003 -9.743741e-001
      outer loop
         vertex 1.544653e+001 1.758828e+002 6.820550e+001
         vertex 6.881948e-001 3.509115e+002 7.015915e+001
         vertex 1.521078e+001 3.508835e+002 6.727959e+001
      endloop
   endfacet
   facet normal -2.371501e-001 -2.584943e-003 -9.714696e-001
      outer loop
         vertex 1.544653e+001 1.758828e+002 6.820550e+001
         vertex 1.521078e+001 3.508835e+002 6.727959e+001
         vertex 2.989628e+001 1.758549e+002 6.424854e+001
      endloop
   endfacet
   facet normal -1.953195e-001 8.854589e-006 -9.807397e-001
      outer loop
         vertex 2.989628e+001 1.758549e+002 6.424854e+001
         vertex 1.521078e+001 3.508835e+002 6.727959e+001
         vertex 2.974994e+001 3.508555e+002 6.476031e+001
      endloop
   endfacet
   facet normal -1.735109e-001 6.586198e-003 -9.848099e-001
      outer loop
         vertex 2.989628e+001 1.758549e+002 6.424854e+001
         vertex 2.974994e+001 3.508555e+002 6.476031e+001
         vertex 5.887421e+001 3.507994e+002 6.071614e+001
      endloop
   endfacet
   facet normal -1.136332e-001 1.064254e-002 -9.934658e-001
      outer loop
         vertex 5.887421e+001 3.507994e+002 6.071614e+001
         vertex 2.974994e+001 3.508555e+002 6.476031e+001
         vertex 5.887286e+001 5.257997e+002 6.326726e+001
      endloop
   endfacet
   facet normal -8.697164e-002 1.653152e-002 -9.960736e-001
      outer loop
         vertex 5.887421e+001 3.507994e+002 6.071614e+001
         vertex 5.887286e+001 5.257997e+002 6.326726e+001
         vertex 8.805400e+001 3.507431e+002 5.785374e+001
      endloop
   endfacet
   facet normal -6.002864e-002 2.012993e-002 -9.979936e-001
      outer loop
         vertex 8.805400e+001 3.507431e+002 5.785374e+001
         vertex 5.887286e+001 5.257997e+002 6.326726e+001
         vertex 8.826116e+001 7.007433e+002 6.499905e+001
      endloop
   endfacet
   facet normal -5.442872e-002 2.228024e-002 -9.982691e-001
      outer loop
         vertex 8.805400e+001 3.507431e+002 5.785374e+001
         vertex 8.826116e+001 7.007433e+002 6.499905e+001
         vertex 1.172822e+002 3.506868e+002 5.600018e+001
      endloop
   endfacet
   facet normal -4.670849e-002 2.429750e-002 -9.986130e-001
      outer loop
         vertex 1.172822e+002 3.506868e+002 5.600018e+001
         vertex 8.826116e+001 7.007433e+002 6.499905e+001
         vertex 1.176295e+002 7.006868e+002 6.359377e+001
      endloop
   endfacet
   facet normal -4.223410e-002 2.245092e-002 -9.988555e-001
      outer loop
         vertex 1.172822e+002 3.506868e+002 5.600018e+001
         vertex 1.176295e+002 7.006868e+002 6.359377e+001
         vertex 1.465517e+002 3.506303e+002 5.498255e+001
      endloop
   endfacet
   facet normal -2.714971e-002 2.000994e-002 -9.994311e-001
      outer loop
         vertex 1.465517e+002 3.506303e+002 5.498255e+001
         vertex 1.176295e+002 7.006868e+002 6.359377e+001
         vertex 1.758555e+002 3.505739e+002 5.462793e+001
      endloop
   endfacet
   facet normal 3.084068e-003 1.624755e-002 -9.998633e-001
      outer loop
         vertex 1.465517e+002 3.506303e+002 5.498255e+001
         vertex 1.758555e+002 3.505739e+002 5.462793e+001
         vertex 1.756247e+002 1.755740e+002 5.207720e+001
      endloop
   endfacet
   facet normal 1.683530e-002 9.655765e-003 -9.998116e-001
      outer loop
         vertex 1.756247e+002 1.755740e+002 5.207720e+001
         vertex 1.758555e+002 3.505739e+002 5.462793e+001
         vertex 2.345376e+002 3.504607e+002 5.521610e+001
      endloop
   endfacet
   facet normal 4.003922e-002 4.732716e-003 -9.991869e-001
      outer loop
         vertex 1.756247e+002 1.755740e+002 5.207720e+001
         vertex 2.345376e+002 3.504607e+002 5.521610e+001
         vertex 2.343209e+002 1.754608e+002 5.527722e+001
      endloop
   endfacet
   facet normal 3.420518e-002 -5.289060e-003 -9.994009e-001
      outer loop
         vertex 2.343209e+002 1.754608e+002 5.527722e+001
         vertex 2.345376e+002 3.504607e+002 5.521610e+001
         vertex 2.932718e+002 3.503475e+002 5.638137e+001
      endloop
   endfacet
   facet normal 4.587277e-002 -1.042950e-002 -9.988928e-001
      outer loop
         vertex 2.343209e+002 1.754608e+002 5.527722e+001
         vertex 2.932718e+002 3.503475e+002 5.638137e+001
         vertex 2.930964e+002 1.753475e+002 5.905605e+001
      endloop
   endfacet
   facet normal -2.932939e-001 5.489238e-003 -9.560066e-001
      outer loop
         vertex 4.539133e+002 3.721428e-002 4.945642e+001
         vertex 4.543095e+002 1.750368e+002 5.048837e+001
         vertex 4.610307e+002 2.349426e-002 4.736302e+001
      endloop
   endfacet
   facet normal -2.713291e-001 9.123266e-003 -9.624434e-001
      outer loop
         vertex 4.610307e+002 2.349426e-002 4.736302e+001
         vertex 4.543095e+002 1.750368e+002 5.048837e+001
         vertex 4.688841e+002 1.750087e+002 4.698668e+001
      endloop
   endfacet
   facet normal -3.245390e-001 1.232563e-002 -9.457920e-001
      outer loop
         vertex 4.610307e+002 2.349426e-002 4.736302e+001
         vertex 4.688841e+002 1.750087e+002 4.698668e+001
         vertex 4.685467e+002 9.005797e-003 4.446668e+001
      endloop
   endfacet
   facet normal 9.400821e-002 -6.113811e-003 -9.955527e-001
      outer loop
         vertex 2.908147e+002 3.516161e-001 6.178056e+001
         vertex 2.340905e+002 4.609620e-001 5.530918e+001
         vertex 2.343209e+002 1.754608e+002 5.527722e+001
      endloop
   endfacet
   facet normal 9.782026e-002 2.306211e-003 -9.952014e-001
      outer loop
         vertex 2.343209e+002 1.754608e+002 5.527722e+001
         vertex 2.340905e+002 4.609620e-001 5.530918e+001
         vertex 2.076791e+002 5.118748e-001 5.229602e+001
      endloop
   endfacet
   facet normal 6.967867e-002 7.476950e-003 -9.975415e-001
      outer loop
         vertex 2.343209e+002 1.754608e+002 5.527722e+001
         vertex 2.076791e+002 5.118748e-001 5.229602e+001
         vertex 1.756247e+002 1.755740e+002 5.207720e+001
      endloop
   endfacet
   facet normal 7.240023e-002 1.330816e-002 -9.972869e-001
      outer loop
         vertex 1.756247e+002 1.755740e+002 5.207720e+001
         vertex 2.076791e+002 5.118748e-001 5.229602e+001
         vertex 1.753266e+002 5.742401e-001 4.984053e+001
      endloop
   endfacet
   facet normal 4.698879e-002 1.830975e-002 -9.987276e-001
      outer loop
         vertex 1.756247e+002 1.755740e+002 5.207720e+001
         vertex 1.753266e+002 5.742401e-001 4.984053e+001
         vertex 1.485909e+002 6.257780e-001 4.781134e+001
      endloop
   endfacet
   facet normal 2.822189e-002 -2.027390e-003 -9.995996e-001
      outer loop
         vertex 4.404026e+002 7.000645e+002 5.178828e+001
         vertex 4.548860e+002 5.250363e+002 5.204787e+001
         vertex 4.402120e+002 5.250646e+002 5.208655e+001
      endloop
   endfacet
   facet normal -3.209736e-002 -1.107045e-003 -9.994841e-001
      outer loop
         vertex 4.402120e+002 5.250646e+002 5.208655e+001
         vertex 4.548860e+002 5.250363e+002 5.204787e+001
         vertex 4.399641e+002 3.500648e+002 5.274140e+001
      endloop
   endfacet
   facet normal -5.066215e-002 -7.499616e-003 -9.986877e-001
      outer loop
         vertex 4.402120e+002 5.250646e+002 5.208655e+001
         vertex 4.399641e+002 3.500648e+002 5.274140e+001
         vertex 4.106703e+002 3.501212e+002 5.490998e+001
      endloop
   endfacet
   facet normal -8.591630e-002 -1.138471e-002 -9.962373e-001
      outer loop
         vertex 4.106703e+002 3.501212e+002 5.490998e+001
         vertex 4.399641e+002 3.500648e+002 5.274140e+001
         vertex 4.104793e+002 1.751213e+002 5.759864e+001
      endloop
   endfacet
   facet normal -6.570187e-002 -1.725031e-002 -9.976902e-001
      outer loop
         vertex 4.106703e+002 3.501212e+002 5.490998e+001
         vertex 4.104793e+002 1.751213e+002 5.759864e+001
         vertex 3.813471e+002 3.501777e+002 5.618536e+001
      endloop
   endfacet
   facet normal -7.089365e-002 -2.078382e-002 -9.972673e-001
      outer loop
         vertex 3.813471e+002 3.501777e+002 5.618536e+001
         vertex 4.104793e+002 1.751213e+002 5.759864e+001
         vertex 3.810130e+002 1.777427e-001 6.371044e+001
      endloop
   endfacet
   facet normal -3.739502e-002 -2.296722e-002 -9.990366e-001
      outer loop
         vertex 3.813471e+002 3.501777e+002 5.618536e+001
         vertex 3.810130e+002 1.777427e-001 6.371044e+001
         vertex 3.520016e+002 3.502343e+002 5.674044e+001
      endloop
   endfacet
   facet normal -2.727174e-002 -2.497555e-002 -9.993160e-001
      outer loop
         vertex 3.520016e+002 3.502343e+002 5.674044e+001
         vertex 3.810130e+002 1.777427e-001 6.371044e+001
         vertex 3.516921e+002 2.342640e-001 6.496125e+001
      endloop
   endfacet
   facet normal -4.168240e-004 -2.539927e-002 -9.996773e-001
      outer loop
         vertex 3.520016e+002 3.502343e+002 5.674044e+001
         vertex 3.516921e+002 2.342640e-001 6.496125e+001
         vertex 3.484197e+002 2.405721e-001 6.510084e+001
      endloop
   endfacet
   facet normal -2.371248e-001 1.390536e-003 -9.714782e-001
      outer loop
         vertex 4.539133e+002 3.721428e-002 4.945642e+001
         vertex 4.397162e+002 1.750649e+002 5.339626e+001
         vertex 4.543095e+002 1.750368e+002 5.048837e+001
      endloop
   endfacet
   facet normal -1.608953e-001 -9.202974e-004 -9.869710e-001
      outer loop
         vertex 4.543095e+002 1.750368e+002 5.048837e+001
         vertex 4.397162e+002 1.750649e+002 5.339626e+001
         vertex 4.399641e+002 3.500648e+002 5.274140e+001
      endloop
   endfacet
   facet normal -1.451288e-001 5.212480e-003 -9.893990e-001
      outer loop
         vertex 4.543095e+002 1.750368e+002 5.048837e+001
         vertex 4.399641e+002 3.500648e+002 5.274140e+001
         vertex 4.692214e+002 3.500083e+002 4.950669e+001
      endloop
   endfacet
   facet normal -7.432052e-002 5.129233e-003 -9.972212e-001
      outer loop
         vertex 4.692214e+002 3.500083e+002 4.950669e+001
         vertex 4.399641e+002 3.500648e+002 5.274140e+001
         vertex 4.548860e+002 5.250363e+002 5.204787e+001
      endloop
   endfacet
   facet normal -4.426816e-002 1.107184e-002 -9.989583e-001
      outer loop
         vertex 4.692214e+002 3.500083e+002 4.950669e+001
         vertex 4.548860e+002 5.250363e+002 5.204787e+001
         vertex 4.695587e+002 5.250080e+002 5.202670e+001
      endloop
   endfacet
   facet normal 3.654567e-002 7.211817e-003 -9.993060e-001
      outer loop
         vertex 4.695587e+002 5.250080e+002 5.202670e+001
         vertex 4.548860e+002 5.250363e+002 5.204787e+001
         vertex 4.551292e+002 7.000362e+002 5.316561e+001
      endloop
   endfacet
   facet normal 8.263765e-002 1.047885e-002 -9.965246e-001
      outer loop
         vertex 4.695587e+002 5.250080e+002 5.202670e+001
         vertex 4.551292e+002 7.000362e+002 5.316561e+001
         vertex 4.698961e+002 7.000077e+002 5.454671e+001
      endloop
   endfacet
   facet normal -3.295001e-002 1.857813e-002 -9.992843e-001
      outer loop
         vertex 1.176295e+002 7.006868e+002 6.359377e+001
         vertex 1.760863e+002 5.255737e+002 5.717867e+001
         vertex 1.758555e+002 3.505739e+002 5.462793e+001
      endloop
   endfacet
   facet normal -2.395821e-002 9.709709e-003 -9.996658e-001
      outer loop
         vertex 1.758555e+002 3.505739e+002 5.462793e+001
         vertex 1.760863e+002 5.255737e+002 5.717867e+001
         vertex 2.347542e+002 5.254606e+002 5.515499e+001
      endloop
   endfacet
   facet normal -4.407417e-003 4.552282e-003 -9.999799e-001
      outer loop
         vertex 1.758555e+002 3.505739e+002 5.462793e+001
         vertex 2.347542e+002 5.254606e+002 5.515499e+001
         vertex 2.345376e+002 3.504607e+002 5.521610e+001
      endloop
   endfacet
   facet normal -1.024752e-002 -5.474259e-003 -9.999325e-001
      outer loop
         vertex 2.345376e+002 3.504607e+002 5.521610e+001
         vertex 2.347542e+002 5.254606e+002 5.515499e+001
         vertex 2.934472e+002 5.253475e+002 5.370671e+001
      endloop
   endfacet
   facet normal 5.160407e-003 -1.039090e-002 -9.999327e-001
      outer loop
         vertex 2.345376e+002 3.504607e+002 5.521610e+001
         vertex 2.934472e+002 5.253475e+002 5.370671e+001
         vertex 2.932718e+002 3.503475e+002 5.638137e+001
      endloop
   endfacet
   facet normal 1.226615e-003 -1.696608e-002 -9.998553e-001
      outer loop
         vertex 2.932718e+002 3.503475e+002 5.638137e+001
         vertex 2.934472e+002 5.253475e+002 5.370671e+001
         vertex 3.226407e+002 3.502909e+002 5.674814e+001
      endloop
   endfacet
   facet normal 2.592965e-002 -1.698599e-002 -9.995195e-001
      outer loop
         vertex 2.932718e+002 3.503475e+002 5.638137e+001
         vertex 3.226407e+002 3.502909e+002 5.674814e+001
         vertex 2.930964e+002 1.753475e+002 5.905605e+001
      endloop
   endfacet
   facet normal 3.898515e-002 -1.998508e-002 -9.990399e-001
      outer loop
         vertex 2.930964e+002 1.753475e+002 5.905605e+001
         vertex 3.226407e+002 3.502909e+002 5.674814e+001
         vertex 3.223576e+002 2.908114e-001 6.359866e+001
      endloop
   endfacet
   facet normal 6.803903e-002 -1.926063e-002 -9.974967e-001
      outer loop
         vertex 2.930964e+002 1.753475e+002 5.905605e+001
         vertex 3.223576e+002 2.908114e-001 6.359866e+001
         vertex 2.929181e+002 3.475614e-001 6.190180e+001
      endloop
   endfacet
   facet normal -9.999982e-001 -1.927676e-003 0.000000e+000
      outer loop
         vertex 1.362866e+000 9.095863e-001 7.549807e+001
         vertex 1.362866e+000 9.095863e-001 1.008981e+002
         vertex 1.025545e+000 1.759106e+002 7.282861e+001
      endloop
   endfacet
   facet normal -9.999982e-001 -1.927676e-003 0.000000e+000
      outer loop
         vertex 1.025545e+000 1.759106e+002 7.282861e+001
         vertex 1.362866e+000 9.095863e-001 1.008981e+002
         vertex 1.025545e+000 1.759106e+002 9.822861e+001
      endloop
   endfacet
   facet normal -9.999982e-001 -1.927676e-003 0.000000e+000
      outer loop
         vertex 1.025545e+000 1.759106e+002 7.282861e+001
         vertex 1.025545e+000 1.759106e+002 9.822861e+001
         vertex 6.881948e-001 3.509115e+002 7.015915e+001
      endloop
   endfacet
   facet normal -9.999982e-001 -1.927676e-003 0.000000e+000
      outer loop
         vertex 6.881948e-001 3.509115e+002 7.015915e+001
         vertex 1.025545e+000 1.759106e+002 9.822861e+001
         vertex 6.881948e-001 3.509115e+002 9.555915e+001
      endloop
   endfacet
   facet normal -9.999982e-001 -1.927676e-003 0.000000e+000
      outer loop
         vertex 6.881948e-001 3.509115e+002 7.015915e+001
         vertex 6.881948e-001 3.509115e+002 9.555915e+001
         vertex 3.508444e-001 5.259125e+002 6.748970e+001
      endloop
   endfacet
   facet normal -9.999982e-001 -1.927676e-003 0.000000e+000
      outer loop
         vertex 3.508444e-001 5.259125e+002 6.748970e+001
         vertex 6.881948e-001 3.509115e+002 9.555915e+001
         vertex 3.508444e-001 5.259125e+002 9.288969e+001
      endloop
   endfacet
   facet normal -9.999982e-001 -1.927676e-003 0.000000e+000
      outer loop
         vertex 3.508444e-001 5.259125e+002 6.748970e+001
         vertex 3.508444e-001 5.259125e+002 9.288969e+001
         vertex 1.349417e-002 7.009135e+002 6.482024e+001
      endloop
   endfacet
   facet normal -9.999982e-001 -1.927676e-003 0.000000e+000
      outer loop
         vertex 1.349417e-002 7.009135e+002 6.482024e+001
         vertex 3.508444e-001 5.259125e+002 9.288969e+001
         vertex 1.349417e-002 7.009135e+002 9.022024e+001
      endloop
   endfacet
   facet normal 1.927676e-003 9.999982e-001 0.000000e+000
      outer loop
         vertex 4.698961e+002 7.000077e+002 7.994671e+001
         vertex 4.698961e+002 7.000077e+002 5.454671e+001
         vertex 4.551292e+002 7.000362e+002 5.316561e+001
      endloop
   endfacet
   facet normal 1.927676e-003 9.999982e-001 0.000000e+000
      outer loop
         vertex 4.698961e+002 7.000077e+002 7.994671e+001
         vertex 4.551292e+002 7.000362e+002 5.316561e+001
         vertex 4.404026e+002 7.000645e+002 7.718829e+001
      endloop
   endfacet
   facet normal 1.927676e-003 9.999982e-001 0.000000e+000
      outer loop
         vertex 4.404026e+002 7.000645e+002 7.718829e+001
         vertex 4.551292e+002 7.000362e+002 5.316561e+001
         vertex 4.404026e+002 7.000645e+002 5.178828e+001
      endloop
   endfacet
   facet normal 1.927676e-003 9.999982e-001 0.000000e+000
      outer loop
         vertex 4.404026e+002 7.000645e+002 7.718829e+001
         vertex 4.404026e+002 7.000645e+002 5.178828e+001
         vertex 4.142837e+002 7.001149e+002 7.474548e+001
      endloop
   endfacet
   facet normal 1.927676e-003 9.999982e-001 0.000000e+000
      outer loop
         vertex 4.142837e+002 7.001149e+002 7.474548e+001
         vertex 4.404026e+002 7.000645e+002 5.178828e+001
         vertex 4.142837e+002 7.001149e+002 4.934547e+001
      endloop
   endfacet
   facet normal 1.927676e-003 9.999982e-001 0.000000e+000
      outer loop
         vertex 4.142837e+002 7.001149e+002 7.474548e+001
         vertex 4.142837e+002 7.001149e+002 4.934547e+001
         vertex 4.110459e+002 7.001212e+002 7.469360e+001
      endloop
   endfacet
   facet normal 1.927676e-003 9.999982e-001 0.000000e+000
      outer loop
         vertex 2.948040e+001 7.008567e+002 6.538843e+001
         vertex 1.349417e-002 7.009135e+002 6.482024e+001
         vertex 1.349417e-002 7.009135e+002 9.022024e+001
      endloop
   endfacet
   facet normal 1.927676e-003 9.999982e-001 0.000000e+000
      outer loop
         vertex 4.142837e+002 7.001149e+002 4.934547e+001
         vertex 4.110459e+002 7.001212e+002 4.929360e+001
         vertex 4.110459e+002 7.001212e+002 7.469360e+001
      endloop
   endfacet
   facet normal 1.927676e-003 9.999982e-001 0.000000e+000
      outer loop
         vertex 4.110459e+002 7.001212e+002 7.469360e+001
         vertex 4.110459e+002 7.001212e+002 4.929360e+001
         vertex 3.527636e+002 7.002335e+002 4.835979e+001
      endloop
   endfacet
   facet normal 1.927676e-003 9.999982e-001 0.000000e+000
      outer loop
         vertex 4.110459e+002 7.001212e+002 7.469360e+001
         vertex 3.527636e+002 7.002335e+002 4.835979e+001
         vertex 3.527636e+002 7.002335e+002 7.375980e+001
      endloop
   endfacet
   facet normal 1.927676e-003 9.999982e-001 0.000000e+000
      outer loop
         vertex 3.527636e+002 7.002335e+002 7.375980e+001
         vertex 3.527636e+002 7.002335e+002 4.835979e+001
         vertex 3.523051e+002 7.002344e+002 4.838099e+001
      endloop
   endfacet
   facet normal 1.927676e-003 9.999982e-001 0.000000e+000
      outer loop
         vertex 3.527636e+002 7.002335e+002 7.375980e+001
         vertex 3.523051e+002 7.002344e+002 4.838099e+001
         vertex 3.523051e+002 7.002344e+002 7.378099e+001
      endloop
   endfacet
   facet normal 1.927676e-003 9.999982e-001 0.000000e+000
      outer loop
         vertex 3.523051e+002 7.002344e+002 7.378099e+001
         vertex 3.523051e+002 7.002344e+002 4.838099e+001
         vertex 2.936445e+002 7.003474e+002 5.109367e+001
      endloop
   endfacet
   facet normal 1.927676e-003 9.999982e-001 0.000000e+000
      outer loop
         vertex 3.523051e+002 7.002344e+002 7.378099e+001
         vertex 2.936445e+002 7.003474e+002 5.109367e+001
         vertex 2.936445e+002 7.003474e+002 7.649367e+001
      endloop
   endfacet
   facet normal 1.927676e-003 9.999982e-001 0.000000e+000
      outer loop
         vertex 6.557748e+001 7.007870e+002 9.148447e+001
         vertex 6.557748e+001 7.007870e+002 6.608447e+001
         vertex 5.889485e+001 7.007999e+002 9.135561e+001
      endloop
   endfacet
   facet normal 1.927676e-003 9.999982e-001 0.000000e+000
      outer loop
         vertex 5.889485e+001 7.007999e+002 9.135561e+001
         vertex 6.557748e+001 7.007870e+002 6.608447e+001
         vertex 5.889485e+001 7.007999e+002 6.595561e+001
      endloop
   endfacet
   facet normal 1.927676e-003 9.999982e-001 0.000000e+000
      outer loop
         vertex 5.889485e+001 7.007999e+002 9.135561e+001
         vertex 5.889485e+001 7.007999e+002 6.595561e+001
         vertex 2.948040e+001 7.008567e+002 9.078843e+001
      endloop
   endfacet
   facet normal 1.927676e-003 9.999982e-001 0.000000e+000
      outer loop
         vertex 2.948040e+001 7.008567e+002 9.078843e+001
         vertex 5.889485e+001 7.007999e+002 6.595561e+001
         vertex 2.948040e+001 7.008567e+002 6.538843e+001
      endloop
   endfacet
   facet normal 1.927676e-003 9.999982e-001 0.000000e+000
      outer loop
         vertex 2.948040e+001 7.008567e+002 9.078843e+001
         vertex 2.948040e+001 7.008567e+002 6.538843e+001
         vertex 1.475399e+001 7.008851e+002 9.050447e+001
      endloop
   endfacet
   facet normal 1.927676e-003 9.999982e-001 0.000000e+000
      outer loop
         vertex 1.475399e+001 7.008851e+002 9.050447e+001
         vertex 2.948040e+001 7.008567e+002 6.538843e+001
         vertex 1.349417e-002 7.009135e+002 9.022024e+001
      endloop
   endfacet
   facet normal 1.927676e-003 9.999982e-001 0.000000e+000
      outer loop
         vertex 2.936445e+002 7.003474e+002 7.649367e+001
         vertex 2.936445e+002 7.003474e+002 5.109367e+001
         vertex 2.772472e+002 7.003791e+002 7.725194e+001
      endloop
   endfacet
   facet normal 1.927676e-003 9.999982e-001 0.000000e+000
      outer loop
         vertex 2.772472e+002 7.003791e+002 7.725194e+001
         vertex 2.936445e+002 7.003474e+002 5.109367e+001
         vertex 2.772472e+002 7.003791e+002 5.185194e+001
      endloop
   endfacet
   facet normal 1.927676e-003 9.999982e-001 0.000000e+000
      outer loop
         vertex 2.772472e+002 7.003791e+002 7.725194e+001
         vertex 2.772472e+002 7.003791e+002 5.185194e+001
         vertex 2.349979e+002 7.004605e+002 8.062147e+001
      endloop
   endfacet
   facet normal 1.927676e-003 9.999982e-001 0.000000e+000
      outer loop
         vertex 2.349979e+002 7.004605e+002 8.062147e+001
         vertex 2.772472e+002 7.003791e+002 5.185194e+001
         vertex 2.349979e+002 7.004605e+002 5.522147e+001
      endloop
   endfacet
   facet normal 1.927676e-003 9.999982e-001 0.000000e+000
      outer loop
         vertex 2.349979e+002 7.004605e+002 8.062147e+001
         vertex 2.349979e+002 7.004605e+002 5.522147e+001
         vertex 1.763349e+002 7.005735e+002 8.530004e+001
      endloop
   endfacet
   facet normal 1.927676e-003 9.999982e-001 0.000000e+000
      outer loop
         vertex 1.763349e+002 7.005735e+002 8.530004e+001
         vertex 2.349979e+002 7.004605e+002 5.522147e+001
         vertex 1.763349e+002 7.005735e+002 5.990005e+001
      endloop
   endfacet
   facet normal 1.927676e-003 9.999982e-001 0.000000e+000
      outer loop
         vertex 1.763349e+002 7.005735e+002 8.530004e+001
         vertex 1.763349e+002 7.005735e+002 5.990005e+001
         vertex 1.486053e+002 7.006270e+002 8.751157e+001
      endloop
   endfacet
   facet normal 1.927676e-003 9.999982e-001 0.000000e+000
      outer loop
         vertex 1.486053e+002 7.006270e+002 8.751157e+001
         vertex 1.763349e+002 7.005735e+002 5.990005e+001
         vertex 1.486053e+002 7.006270e+002 6.211158e+001
      endloop
   endfacet
   facet normal 1.927676e-003 9.999982e-001 0.000000e+000
      outer loop
         vertex 1.486053e+002 7.006270e+002 8.751157e+001
         vertex 1.486053e+002 7.006270e+002 6.211158e+001
         vertex 1.176295e+002 7.006868e+002 8.899377e+001
      endloop
   endfacet
   facet normal 1.927676e-003 9.999982e-001 0.000000e+000
      outer loop
         vertex 1.176295e+002 7.006868e+002 8.899377e+001
         vertex 1.486053e+002 7.006270e+002 6.211158e+001
         vertex 1.176295e+002 7.006868e+002 6.359377e+001
      endloop
   endfacet
   facet normal 1.927676e-003 9.999982e-001 0.000000e+000
      outer loop
         vertex 1.176295e+002 7.006868e+002 8.899377e+001
         vertex 1.176295e+002 7.006868e+002 6.359377e+001
         vertex 6.557748e+001 7.007870e+002 9.148447e+001
      endloop
   endfacet
   facet normal 1.927676e-003 9.999982e-001 0.000000e+000
      outer loop
         vertex 6.557748e+001 7.007870e+002 9.148447e+001
         vertex 1.176295e+002 7.006868e+002 6.359377e+001
         vertex 8.826116e+001 7.007433e+002 6.499905e+001
      endloop
   endfacet
   facet normal 1.927676e-003 9.999982e-001 0.000000e+000
      outer loop
         vertex 6.557748e+001 7.007870e+002 9.148447e+001
         vertex 8.826116e+001 7.007433e+002 6.499905e+001
         vertex 6.557748e+001 7.007870e+002 6.608447e+001
      endloop
   endfacet
   facet normal 9.999982e-001 -1.927676e-003 0.000000e+000
      outer loop
         vertex 4.698961e+002 7.000077e+002 5.454671e+001
         vertex 4.698961e+002 7.000077e+002 7.994671e+001
         vertex 4.695587e+002 5.250080e+002 5.202670e+001
      endloop
   endfacet
   facet normal 9.999982e-001 -1.927676e-003 0.000000e+000
      outer loop
         vertex 4.695587e+002 5.250080e+002 5.202670e+001
         vertex 4.698961e+002 7.000077e+002 7.994671e+001
         vertex 4.695587e+002 5.250080e+002 7.742670e+001
      endloop
   endfacet
   facet normal 9.999982e-001 -1.927676e-003 0.000000e+000
      outer loop
         vertex 4.695587e+002 5.250080e+002 5.202670e+001
         vertex 4.695587e+002 5.250080e+002 7.742670e+001
         vertex 4.692214e+002 3.500083e+002 4.950669e+001
      endloop
   endfacet
   facet normal 9.999982e-001 -1.927676e-003 0.000000e+000
      outer loop
         vertex 4.692214e+002 3.500083e+002 4.950669e+001
         vertex 4.695587e+002 5.250080e+002 7.742670e+001
         vertex 4.692214e+002 3.500083e+002 7.490669e+001
      endloop
   endfacet
   facet normal 9.999982e-001 -1.927676e-003 0.000000e+000
      outer loop
         vertex 4.692214e+002 3.500083e+002 4.950669e+001
         vertex 4.692214e+002 3.500083e+002 7.490669e+001
         vertex 4.688841e+002 1.750087e+002 4.698668e+001
      endloop
   endfacet
   facet normal 9.999982e-001 -1.927676e-003 0.000000e+000
      outer loop
         vertex 4.688841e+002 1.750087e+002 4.698668e+001
         vertex 4.692214e+002 3.500083e+002 7.490669e+001
         vertex 4.688841e+002 1.750087e+002 7.238668e+001
      endloop
   endfacet
   facet normal 9.999982e-001 -1.927676e-003 0.000000e+000
      outer loop
         vertex 4.688841e+002 1.750087e+002 4.698668e+001
         vertex 4.688841e+002 1.750087e+002 7.238668e+001
         vertex 4.685467e+002 9.005797e-003 4.446668e+001
      endloop
   endfacet
   facet normal 9.999982e-001 -1.927676e-003 0.000000e+000
      outer loop
         vertex 4.685467e+002 9.005797e-003 4.446668e+001
         vertex 4.688841e+002 1.750087e+002 7.238668e+001
         vertex 4.685467e+002 9.005797e-003 6.986668e+001
      endloop
   endfacet
   facet normal -1.927676e-003 -9.999982e-001 0.000000e+000
      outer loop
         vertex 4.610307e+002 2.349426e-002 4.736302e+001
         vertex 4.685467e+002 9.005797e-003 4.446668e+001
         vertex 4.685467e+002 9.005797e-003 6.986668e+001
      endloop
   endfacet
   facet normal -1.927676e-003 -9.999982e-001 0.000000e+000
      outer loop
         vertex 4.610307e+002 2.349426e-002 4.736302e+001
         vertex 4.685467e+002 9.005797e-003 6.986668e+001
         vertex 4.539133e+002 3.721428e-002 4.945642e+001
      endloop
   endfacet
   facet normal -1.927676e-003 -9.999982e-001 0.000000e+000
      outer loop
         vertex 1.362866e+000 9.095863e-001 1.008981e+002
         vertex 1.362866e+000 9.095863e-001 7.549807e+001
         vertex 1.591939e+001 8.815261e-001 9.501072e+001
      endloop
   endfacet
   facet normal -1.927676e-003 -9.999982e-001 0.000000e+000
      outer loop
         vertex 1.591939e+001 8.815261e-001 9.501072e+001
         vertex 1.362866e+000 9.095863e-001 7.549807e+001
         vertex 1.591939e+001 8.815261e-001 6.961073e+001
      endloop
   endfacet
   facet normal -1.927676e-003 -9.999982e-001 0.000000e+000
      outer loop
         vertex 1.591939e+001 8.815261e-001 9.501072e+001
         vertex 1.591939e+001 8.815261e-001 6.961073e+001
         vertex 3.016583e+001 8.540635e-001 8.924880e+001
      endloop
   endfacet
   facet normal -1.927676e-003 -9.999982e-001 0.000000e+000
      outer loop
         vertex 3.016583e+001 8.540635e-001 8.924880e+001
         vertex 1.591939e+001 8.815261e-001 6.961073e+001
         vertex 3.569740e+001 8.434004e-001 8.701157e+001
      endloop
   endfacet
   facet normal -1.927676e-003 -9.999982e-001 0.000000e+000
      outer loop
         vertex 2.076791e+002 5.118748e-001 5.229602e+001
         vertex 2.340905e+002 4.609620e-001 5.530918e+001
         vertex 2.340905e+002 4.609620e-001 8.070918e+001
      endloop
   endfacet
   facet normal -1.927676e-003 -9.999982e-001 0.000000e+000
      outer loop
         vertex 2.340905e+002 4.609620e-001 8.070918e+001
         vertex 2.340905e+002 4.609620e-001 5.530918e+001
         vertex 2.908147e+002 3.516161e-001 8.718056e+001
      endloop
   endfacet
   facet normal -1.927676e-003 -9.999982e-001 0.000000e+000
      outer loop
         vertex 2.340905e+002 4.609620e-001 5.530918e+001
         vertex 2.908147e+002 3.516161e-001 6.178056e+001
         vertex 2.908147e+002 3.516161e-001 8.718056e+001
      endloop
   endfacet
   facet normal -1.927676e-003 -9.999982e-001 0.000000e+000
      outer loop
         vertex 2.908147e+002 3.516161e-001 8.718056e+001
         vertex 2.908147e+002 3.516161e-001 6.178056e+001
         vertex 2.929181e+002 3.475614e-001 6.190180e+001
      endloop
   endfacet
   facet normal -1.927676e-003 -9.999982e-001 0.000000e+000
      outer loop
         vertex 2.908147e+002 3.516161e-001 8.718056e+001
         vertex 2.929181e+002 3.475614e-001 6.190180e+001
         vertex 2.929181e+002 3.475614e-001 8.730180e+001
      endloop
   endfacet
   facet normal -1.927676e-003 -9.999982e-001 0.000000e+000
      outer loop
         vertex 2.929181e+002 3.475614e-001 8.730180e+001
         vertex 2.929181e+002 3.475614e-001 6.190180e+001
         vertex 3.223576e+002 2.908114e-001 6.359866e+001
      endloop
   endfacet
   facet normal -1.927676e-003 -9.999982e-001 0.000000e+000
      outer loop
         vertex 4.685467e+002 9.005797e-003 6.986668e+001
         vertex 4.610307e+002 2.349426e-002 7.276302e+001
         vertex 4.539133e+002 3.721428e-002 4.945642e+001
      endloop
   endfacet
   facet normal -1.927676e-003 -9.999982e-001 0.000000e+000
      outer loop
         vertex 4.539133e+002 3.721428e-002 4.945642e+001
         vertex 4.610307e+002 2.349426e-002 7.276302e+001
         vertex 4.539133e+002 3.721428e-002 7.485642e+001
      endloop
   endfacet
   facet normal -1.927676e-003 -9.999982e-001 0.000000e+000
      outer loop
         vertex 4.539133e+002 3.721428e-002 4.945642e+001
         vertex 4.539133e+002 3.721428e-002 7.485642e+001
         vertex 4.393181e+002 6.534908e-002 5.374925e+001
      endloop
   endfacet
   facet normal -1.927676e-003 -9.999982e-001 0.000000e+000
      outer loop
         vertex 4.393181e+002 6.534908e-002 5.374925e+001
         vertex 4.539133e+002 3.721428e-002 7.485642e+001
         vertex 4.393181e+002 6.534908e-002 7.914925e+001
      endloop
   endfacet
   facet normal -1.927676e-003 -9.999982e-001 0.000000e+000
      outer loop
         vertex 4.393181e+002 6.534908e-002 5.374925e+001
         vertex 4.393181e+002 6.534908e-002 7.914925e+001
         vertex 4.267970e+002 8.948588e-002 5.743205e+001
      endloop
   endfacet
   facet normal -1.927676e-003 -9.999982e-001 0.000000e+000
      outer loop
         vertex 4.267970e+002 8.948588e-002 5.743205e+001
         vertex 4.393181e+002 6.534908e-002 7.914925e+001
         vertex 4.267970e+002 8.948588e-002 8.283205e+001
      endloop
   endfacet
   facet normal -1.927676e-003 -9.999982e-001 0.000000e+000
      outer loop
         vertex 4.267970e+002 8.948588e-002 5.743205e+001
         vertex 4.267970e+002 8.948588e-002 8.283205e+001
         vertex 4.102027e+002 1.214744e-001 6.007286e+001
      endloop
   endfacet
   facet normal -1.927676e-003 -9.999982e-001 0.000000e+000
      outer loop
         vertex 4.102027e+002 1.214744e-001 6.007286e+001
         vertex 4.267970e+002 8.948588e-002 8.283205e+001
         vertex 4.102027e+002 1.214744e-001 8.547286e+001
      endloop
   endfacet
   facet normal -1.927676e-003 -9.999982e-001 0.000000e+000
      outer loop
         vertex 4.102027e+002 1.214744e-001 6.007286e+001
         vertex 4.102027e+002 1.214744e-001 8.547286e+001
         vertex 3.896638e+002 1.610667e-001 6.334140e+001
      endloop
   endfacet
   facet normal -1.927676e-003 -9.999982e-001 0.000000e+000
      outer loop
         vertex 3.896638e+002 1.610667e-001 6.334140e+001
         vertex 4.102027e+002 1.214744e-001 8.547286e+001
         vertex 3.896638e+002 1.610667e-001 8.874140e+001
      endloop
   endfacet
   facet normal -1.927676e-003 -9.999982e-001 0.000000e+000
      outer loop
         vertex 3.896638e+002 1.610667e-001 6.334140e+001
         vertex 3.896638e+002 1.610667e-001 8.874140e+001
         vertex 3.810130e+002 1.777427e-001 6.371044e+001
      endloop
   endfacet
   facet normal -1.927676e-003 -9.999982e-001 0.000000e+000
      outer loop
         vertex 3.810130e+002 1.777427e-001 6.371044e+001
         vertex 3.896638e+002 1.610667e-001 8.874140e+001
         vertex 3.810130e+002 1.777427e-001 8.911044e+001
      endloop
   endfacet
   facet normal -1.927676e-003 -9.999982e-001 0.000000e+000
      outer loop
         vertex 3.810130e+002 1.777427e-001 6.371044e+001
         vertex 3.810130e+002 1.777427e-001 8.911044e+001
         vertex 3.516921e+002 2.342640e-001 6.496125e+001
      endloop
   endfacet
   facet normal -1.927676e-003 -9.999982e-001 0.000000e+000
      outer loop
         vertex 3.516921e+002 2.342640e-001 6.496125e+001
         vertex 3.810130e+002 1.777427e-001 8.911044e+001
         vertex 3.516921e+002 2.342640e-001 9.036124e+001
      endloop
   endfacet
   facet normal -1.927676e-003 -9.999982e-001 0.000000e+000
      outer loop
         vertex 3.516921e+002 2.342640e-001 6.496125e+001
         vertex 3.516921e+002 2.342640e-001 9.036124e+001
         vertex 3.484197e+002 2.405721e-001 6.510084e+001
      endloop
   endfacet
   facet normal -1.927676e-003 -9.999982e-001 0.000000e+000
      outer loop
         vertex 3.484197e+002 2.405721e-001 6.510084e+001
         vertex 3.516921e+002 2.342640e-001 9.036124e+001
         vertex 3.484197e+002 2.405721e-001 9.050085e+001
      endloop
   endfacet
   facet normal -1.927676e-003 -9.999982e-001 0.000000e+000
      outer loop
         vertex 3.484197e+002 2.405721e-001 6.510084e+001
         vertex 3.484197e+002 2.405721e-001 9.050085e+001
         vertex 3.223576e+002 2.908114e-001 6.359866e+001
      endloop
   endfacet
   facet normal -1.927676e-003 -9.999982e-001 0.000000e+000
      outer loop
         vertex 3.223576e+002 2.908114e-001 6.359866e+001
         vertex 3.484197e+002 2.405721e-001 9.050085e+001
         vertex 3.223576e+002 2.908114e-001 8.899865e+001
      endloop
   endfacet
   facet normal -1.927676e-003 -9.999982e-001 0.000000e+000
      outer loop
         vertex 3.223576e+002 2.908114e-001 6.359866e+001
         vertex 3.223576e+002 2.908114e-001 8.899865e+001
         vertex 2.929181e+002 3.475614e-001 8.730180e+001
      endloop
   endfacet
   facet normal -1.927676e-003 -9.999982e-001 0.000000e+000
      outer loop
         vertex 1.591939e+001 8.815261e-001 6.961073e+001
         vertex 3.016583e+001 8.540635e-001 6.384880e+001
         vertex 3.569740e+001 8.434004e-001 8.701157e+001
      endloop
   endfacet
   facet normal -1.927676e-003 -9.999982e-001 0.000000e+000
      outer loop
         vertex 3.569740e+001 8.434004e-001 8.701157e+001
         vertex 3.016583e+001 8.540635e-001 6.384880e+001
         vertex 3.569740e+001 8.434004e-001 6.161158e+001
      endloop
   endfacet
   facet normal -1.927676e-003 -9.999982e-001 0.000000e+000
      outer loop
         vertex 3.569740e+001 8.434004e-001 8.701157e+001
         vertex 3.569740e+001 8.434004e-001 6.161158e+001
         vertex 5.898360e+001 7.985121e-001 8.116193e+001
      endloop
   endfacet
   facet normal -1.927676e-003 -9.999982e-001 0.000000e+000
      outer loop
         vertex 5.898360e+001 7.985121e-001 8.116193e+001
         vertex 3.569740e+001 8.434004e-001 6.161158e+001
         vertex 5.898360e+001 7.985121e-001 5.576193e+001
      endloop
   endfacet
   facet normal -1.927676e-003 -9.999982e-001 0.000000e+000
      outer loop
         vertex 5.898360e+001 7.985121e-001 8.116193e+001
         vertex 5.898360e+001 7.985121e-001 5.576193e+001
         vertex 7.041617e+001 7.764737e-001 7.828999e+001
      endloop
   endfacet
   facet normal -1.927676e-003 -9.999982e-001 0.000000e+000
      outer loop
         vertex 7.041617e+001 7.764737e-001 7.828999e+001
         vertex 5.898360e+001 7.985121e-001 5.576193e+001
         vertex 7.041617e+001 7.764737e-001 5.288999e+001
      endloop
   endfacet
   facet normal -1.927676e-003 -9.999982e-001 0.000000e+000
      outer loop
         vertex 7.041617e+001 7.764737e-001 7.828999e+001
         vertex 7.041617e+001 7.764737e-001 5.288999e+001
         vertex 8.788969e+001 7.427904e-001 7.616504e+001
      endloop
   endfacet
   facet normal -1.927676e-003 -9.999982e-001 0.000000e+000
      outer loop
         vertex 8.788969e+001 7.427904e-001 7.616504e+001
         vertex 7.041617e+001 7.764737e-001 5.288999e+001
         vertex 8.788969e+001 7.427904e-001 5.076504e+001
      endloop
   endfacet
   facet normal -1.927676e-003 -9.999982e-001 0.000000e+000
      outer loop
         vertex 8.788969e+001 7.427904e-001 7.616504e+001
         vertex 8.788969e+001 7.427904e-001 5.076504e+001
         vertex 1.075992e+002 7.047967e-001 7.376817e+001
      endloop
   endfacet
   facet normal -1.927676e-003 -9.999982e-001 0.000000e+000
      outer loop
         vertex 1.075992e+002 7.047967e-001 7.376817e+001
         vertex 8.788969e+001 7.427904e-001 5.076504e+001
         vertex 1.075992e+002 7.047967e-001 4.836817e+001
      endloop
   endfacet
   facet normal -1.927676e-003 -9.999982e-001 0.000000e+000
      outer loop
         vertex 1.075992e+002 7.047967e-001 7.376817e+001
         vertex 1.075992e+002 7.047967e-001 4.836817e+001
         vertex 1.169147e+002 6.868395e-001 7.364162e+001
      endloop
   endfacet
   facet normal -1.927676e-003 -9.999982e-001 0.000000e+000
      outer loop
         vertex 1.169147e+002 6.868395e-001 7.364162e+001
         vertex 1.075992e+002 7.047967e-001 4.836817e+001
         vertex 1.169147e+002 6.868395e-001 4.824163e+001
      endloop
   endfacet
   facet normal -1.927676e-003 -9.999982e-001 0.000000e+000
      outer loop
         vertex 1.169147e+002 6.868395e-001 7.364162e+001
         vertex 1.169147e+002 6.868395e-001 4.824163e+001
         vertex 1.460996e+002 6.305804e-001 7.324519e+001
      endloop
   endfacet
   facet normal -1.927676e-003 -9.999982e-001 0.000000e+000
      outer loop
         vertex 1.460996e+002 6.305804e-001 7.324519e+001
         vertex 1.169147e+002 6.868395e-001 4.824163e+001
         vertex 1.460996e+002 6.305804e-001 4.784518e+001
      endloop
   endfacet
   facet normal -1.927676e-003 -9.999982e-001 0.000000e+000
      outer loop
         vertex 1.460996e+002 6.305804e-001 7.324519e+001
         vertex 1.460996e+002 6.305804e-001 4.784518e+001
         vertex 1.485909e+002 6.257780e-001 7.321134e+001
      endloop
   endfacet
   facet normal -1.927676e-003 -9.999982e-001 0.000000e+000
      outer loop
         vertex 1.485909e+002 6.257780e-001 7.321134e+001
         vertex 1.460996e+002 6.305804e-001 4.784518e+001
         vertex 1.485909e+002 6.257780e-001 4.781134e+001
      endloop
   endfacet
   facet normal -1.927676e-003 -9.999982e-001 0.000000e+000
      outer loop
         vertex 1.485909e+002 6.257780e-001 7.321134e+001
         vertex 1.485909e+002 6.257780e-001 4.781134e+001
         vertex 1.753266e+002 5.742401e-001 7.524053e+001
      endloop
   endfacet
   facet normal -1.927676e-003 -9.999982e-001 0.000000e+000
      outer loop
         vertex 1.753266e+002 5.742401e-001 7.524053e+001
         vertex 1.485909e+002 6.257780e-001 4.781134e+001
         vertex 1.753266e+002 5.742401e-001 4.984053e+001
      endloop
   endfacet
   facet normal -1.927676e-003 -9.999982e-001 0.000000e+000
      outer loop
         vertex 1.753266e+002 5.742401e-001 7.524053e+001
         vertex 1.753266e+002 5.742401e-001 4.984053e+001
         vertex 2.046985e+002 5.176204e-001 7.746980e+001
      endloop
   endfacet
   facet normal -1.927676e-003 -9.999982e-001 0.000000e+000
      outer loop
         vertex 2.046985e+002 5.176204e-001 7.746980e+001
         vertex 1.753266e+002 5.742401e-001 4.984053e+001
         vertex 2.076791e+002 5.118748e-001 5.229602e+001
      endloop
   endfacet
   facet normal -1.927676e-003 -9.999982e-001 0.000000e+000
      outer loop
         vertex 2.046985e+002 5.176204e-001 7.746980e+001
         vertex 2.076791e+002 5.118748e-001 5.229602e+001
         vertex 2.076791e+002 5.118748e-001 7.769602e+001
      endloop
   endfacet
   facet normal -1.927676e-003 -9.999982e-001 0.000000e+000
      outer loop
         vertex 2.076791e+002 5.118748e-001 7.769602e+001
         vertex 2.076791e+002 5.118748e-001 5.229602e+001
         vertex 2.340905e+002 4.609620e-001 8.070918e+001
      endloop
   endfacet
   facet normal 3.511599e-001 1.163570e-002 9.362432e-001
      outer loop
         vertex 1.544653e+001 1.758828e+002 9.360550e+001
         vertex 1.025545e+000 1.759106e+002 9.822861e+001
         vertex 1.362866e+000 9.095863e-001 1.008981e+002
      endloop
   endfacet
   facet normal -6.803903e-002 1.926063e-002 9.974967e-001
      outer loop
         vertex 2.930964e+002 1.753475e+002 8.445604e+001
         vertex 2.929181e+002 3.475614e-001 8.730180e+001
         vertex 3.223576e+002 2.908114e-001 8.899865e+001
      endloop
   endfacet
   facet normal -8.145870e-002 1.704425e-002 9.965310e-001
      outer loop
         vertex 2.929181e+002 3.475614e-001 8.730180e+001
         vertex 2.930964e+002 1.753475e+002 8.445604e+001
         vertex 2.908147e+002 3.516161e-001 8.718056e+001
      endloop
   endfacet
   facet normal 1.348850e-002 2.331852e-002 9.996371e-001
      outer loop
         vertex 3.527636e+002 7.002335e+002 7.375980e+001
         vertex 3.523051e+002 7.002344e+002 7.378099e+001
         vertex 4.108612e+002 5.251212e+002 7.762132e+001
      endloop
   endfacet
   facet normal 1.207912e-001 1.196381e-002 9.926059e-001
      outer loop
         vertex 1.497503e+001 5.258843e+002 9.175368e+001
         vertex 3.508444e-001 5.259125e+002 9.288969e+001
         vertex 6.881948e-001 3.509115e+002 9.555915e+001
      endloop
   endfacet
   facet normal -6.596120e-003 1.149709e-002 9.999121e-001
      outer loop
         vertex 1.349417e-002 7.009135e+002 9.022024e+001
         vertex 3.508444e-001 5.259125e+002 9.288969e+001
         vertex 1.475399e+001 7.008851e+002 9.050447e+001
      endloop
   endfacet
   facet normal 3.839524e-002 8.165729e-003 9.992293e-001
      outer loop
         vertex 1.475399e+001 7.008851e+002 9.050447e+001
         vertex 3.508444e-001 5.259125e+002 9.288969e+001
         vertex 1.497503e+001 5.258843e+002 9.175368e+001
      endloop
   endfacet
   facet normal 4.553798e-003 1.285975e-003 9.999888e-001
      outer loop
         vertex 1.475399e+001 7.008851e+002 9.050447e+001
         vertex 1.497503e+001 5.258843e+002 9.175368e+001
         vertex 2.948040e+001 7.008567e+002 9.078843e+001
      endloop
   endfacet
   facet normal 3.021848e-002 -1.793933e-002 9.993823e-001
      outer loop
         vertex 6.557748e+001 7.007870e+002 9.148447e+001
         vertex 5.889485e+001 7.007999e+002 9.135561e+001
         vertex 5.887286e+001 5.257997e+002 8.866726e+001
      endloop
   endfacet
   facet normal 1.750298e-002 -1.292204e-002 9.997633e-001
      outer loop
         vertex 5.887286e+001 5.257997e+002 8.866726e+001
         vertex 5.889485e+001 7.007999e+002 9.135561e+001
         vertex 2.948040e+001 7.008567e+002 9.078843e+001
      endloop
   endfacet
   facet normal 3.825900e-002 -7.922248e-003 9.992365e-001
      outer loop
         vertex 5.887286e+001 5.257997e+002 8.866726e+001
         vertex 2.948040e+001 7.008567e+002 9.078843e+001
         vertex 2.960356e+001 5.258561e+002 9.067210e+001
      endloop
   endfacet
   facet normal 4.186779e-002 -1.128464e-003 9.991225e-001
      outer loop
         vertex 2.960356e+001 5.258561e+002 9.067210e+001
         vertex 2.948040e+001 7.008567e+002 9.078843e+001
         vertex 1.497503e+001 5.258843e+002 9.175368e+001
      endloop
   endfacet
   facet normal 1.101161e-001 2.480199e-003 9.939156e-001
      outer loop
         vertex 2.960356e+001 5.258561e+002 9.067210e+001
         vertex 1.497503e+001 5.258843e+002 9.175368e+001
         vertex 1.521078e+001 3.508835e+002 9.267959e+001
      endloop
   endfacet
   facet normal 1.551746e-001 8.690814e-003 9.878488e-001
      outer loop
         vertex 1.521078e+001 3.508835e+002 9.267959e+001
         vertex 1.497503e+001 5.258843e+002 9.175368e+001
         vertex 6.881948e-001 3.509115e+002 9.555915e+001
      endloop
   endfacet
   facet normal 2.389385e-001 1.200254e-002 9.709605e-001
      outer loop
         vertex 1.521078e+001 3.508835e+002 9.267959e+001
         vertex 6.881948e-001 3.509115e+002 9.555915e+001
         vertex 1.025545e+000 1.759106e+002 9.822861e+001
      endloop
   endfacet
   facet normal 5.989930e-002 -2.407739e-002 9.979140e-001
      outer loop
         vertex 1.176295e+002 7.006868e+002 8.899377e+001
         vertex 1.174553e+002 5.256868e+002 8.525650e+001
         vertex 1.486053e+002 7.006270e+002 8.751157e+001
      endloop
   endfacet
   facet normal 5.439701e-002 -2.034933e-002 9.983120e-001
      outer loop
         vertex 1.486053e+002 7.006270e+002 8.751157e+001
         vertex 1.174553e+002 5.256868e+002 8.525650e+001
         vertex 1.760863e+002 5.255737e+002 8.257867e+001
      endloop
   endfacet
   facet normal 8.018984e-002 -1.123556e-002 9.967163e-001
      outer loop
         vertex 4.692214e+002 3.500083e+002 7.490669e+001
         vertex 4.695587e+002 5.250080e+002 7.742670e+001
         vertex 4.545977e+002 3.500365e+002 7.666812e+001
      endloop
   endfacet
   facet normal 3.754988e-002 -7.794301e-003 9.992644e-001
      outer loop
         vertex 4.545977e+002 3.500365e+002 7.666812e+001
         vertex 4.695587e+002 5.250080e+002 7.742670e+001
         vertex 4.548860e+002 5.250363e+002 7.744787e+001
      endloop
   endfacet
   facet normal 6.760119e-002 -1.856465e-003 9.977107e-001
      outer loop
         vertex 4.545977e+002 3.500365e+002 7.666812e+001
         vertex 4.548860e+002 5.250363e+002 7.744787e+001
         vertex 4.399641e+002 3.500648e+002 7.814140e+001
      endloop
   endfacet
   facet normal 3.209736e-002 1.107045e-003 9.994841e-001
      outer loop
         vertex 4.399641e+002 3.500648e+002 7.814140e+001
         vertex 4.548860e+002 5.250363e+002 7.744787e+001
         vertex 4.402120e+002 5.250646e+002 7.748654e+001
      endloop
   endfacet
   facet normal 3.342860e-002 7.863523e-003 9.994102e-001
      outer loop
         vertex 4.399641e+002 3.500648e+002 7.814140e+001
         vertex 4.402120e+002 5.250646e+002 7.748654e+001
         vertex 4.108612e+002 5.251212e+002 7.762132e+001
      endloop
   endfacet
   facet normal 1.090982e-002 1.037015e-002 9.998867e-001
      outer loop
         vertex 2.347542e+002 5.254606e+002 8.055499e+001
         vertex 2.932718e+002 3.503475e+002 8.178137e+001
         vertex 2.934472e+002 5.253475e+002 7.910671e+001
      endloop
   endfacet
   facet normal -1.226615e-003 1.696608e-002 9.998553e-001
      outer loop
         vertex 2.934472e+002 5.253475e+002 7.910671e+001
         vertex 2.932718e+002 3.503475e+002 8.178137e+001
         vertex 3.226407e+002 3.502909e+002 8.214814e+001
      endloop
   endfacet
   facet normal 7.277822e-003 1.940481e-002 9.997852e-001
      outer loop
         vertex 2.934472e+002 5.253475e+002 7.910671e+001
         vertex 3.226407e+002 3.502909e+002 8.214814e+001
         vertex 3.520016e+002 3.502343e+002 8.214044e+001
      endloop
   endfacet
   facet normal -9.400821e-002 6.113811e-003 9.955527e-001
      outer loop
         vertex 2.340905e+002 4.609620e-001 8.070918e+001
         vertex 2.908147e+002 3.516161e-001 8.718056e+001
         vertex 2.343209e+002 1.754608e+002 8.067722e+001
      endloop
   endfacet
   facet normal -7.234173e-002 1.121016e-002 9.973169e-001
      outer loop
         vertex 2.343209e+002 1.754608e+002 8.067722e+001
         vertex 2.908147e+002 3.516161e-001 8.718056e+001
         vertex 2.930964e+002 1.753475e+002 8.445604e+001
      endloop
   endfacet
   facet normal -4.653447e-002 5.533285e-003 9.989014e-001
      outer loop
         vertex 2.343209e+002 1.754608e+002 8.067722e+001
         vertex 2.930964e+002 1.753475e+002 8.445604e+001
         vertex 2.345376e+002 3.504607e+002 8.061610e+001
      endloop
   endfacet
   facet normal 6.570186e-002 1.725030e-002 9.976902e-001
      outer loop
         vertex 3.813471e+002 3.501777e+002 8.158536e+001
         vertex 4.104793e+002 1.751213e+002 8.299864e+001
         vertex 4.106703e+002 3.501212e+002 8.030998e+001
      endloop
   endfacet
   facet normal 1.147069e-001 1.154850e-002 9.933323e-001
      outer loop
         vertex 4.106703e+002 3.501212e+002 8.030998e+001
         vertex 4.104793e+002 1.751213e+002 8.299864e+001
         vertex 4.397162e+002 1.750649e+002 7.879625e+001
      endloop
   endfacet
   facet normal 1.233539e-001 1.952532e-002 9.921706e-001
      outer loop
         vertex 3.896638e+002 1.610667e-001 8.874140e+001
         vertex 4.102027e+002 1.214744e-001 8.547286e+001
         vertex 4.104793e+002 1.751213e+002 8.299864e+001
      endloop
   endfacet
   facet normal 1.638603e-001 1.549080e-002 9.863619e-001
      outer loop
         vertex 4.104793e+002 1.751213e+002 8.299864e+001
         vertex 4.102027e+002 1.214744e-001 8.547286e+001
         vertex 4.267970e+002 8.948588e-002 8.283205e+001
      endloop
   endfacet
   facet normal 1.685964e-001 1.055992e-002 9.856286e-001
      outer loop
         vertex 4.104793e+002 1.751213e+002 8.299864e+001
         vertex 4.267970e+002 8.948588e-002 8.283205e+001
         vertex 4.397162e+002 1.750649e+002 7.879625e+001
      endloop
   endfacet
   facet normal 2.204982e-001 7.102458e-003 9.753615e-001
      outer loop
         vertex 4.397162e+002 1.750649e+002 7.879625e+001
         vertex 4.267970e+002 8.948588e-002 8.283205e+001
         vertex 4.393181e+002 6.534908e-002 7.914925e+001
      endloop
   endfacet
   facet normal 2.188064e-001 1.612399e-003 9.757670e-001
      outer loop
         vertex 4.397162e+002 1.750649e+002 7.879625e+001
         vertex 4.393181e+002 6.534908e-002 7.914925e+001
         vertex 4.543095e+002 1.750368e+002 7.588837e+001
      endloop
   endfacet
   facet normal 2.662391e-001 -8.488593e-004 9.639066e-001
      outer loop
         vertex 4.543095e+002 1.750368e+002 7.588837e+001
         vertex 4.393181e+002 6.534908e-002 7.914925e+001
         vertex 4.539133e+002 3.721428e-002 7.485642e+001
      endloop
   endfacet
   facet normal 2.623489e-001 -7.483257e-003 9.649441e-001
      outer loop
         vertex 4.543095e+002 1.750368e+002 7.588837e+001
         vertex 4.539133e+002 3.721428e-002 7.485642e+001
         vertex 4.688841e+002 1.750087e+002 7.238668e+001
      endloop
   endfacet
   facet normal 3.060449e-001 -8.800293e-003 9.519764e-001
      outer loop
         vertex 4.688841e+002 1.750087e+002 7.238668e+001
         vertex 4.539133e+002 3.721428e-002 7.485642e+001
         vertex 4.610307e+002 2.349426e-002 7.276302e+001
      endloop
   endfacet
   facet normal 3.245390e-001 -1.232563e-002 9.457920e-001
      outer loop
         vertex 4.688841e+002 1.750087e+002 7.238668e+001
         vertex 4.610307e+002 2.349426e-002 7.276302e+001
         vertex 4.685467e+002 9.005797e-003 6.986668e+001
      endloop
   endfacet
   facet normal 9.348354e-002 2.182330e-002 9.953816e-001
      outer loop
         vertex 3.896638e+002 1.610667e-001 8.874140e+001
         vertex 4.104793e+002 1.751213e+002 8.299864e+001
         vertex 3.810130e+002 1.777427e-001 8.911044e+001
      endloop
   endfacet
   facet normal 7.089365e-002 2.078383e-002 9.972673e-001
      outer loop
         vertex 3.810130e+002 1.777427e-001 8.911044e+001
         vertex 4.104793e+002 1.751213e+002 8.299864e+001
         vertex 3.813471e+002 3.501777e+002 8.158536e+001
      endloop
   endfacet
   facet normal 3.446991e-002 2.450304e-002 9.991053e-001
      outer loop
         vertex 3.810130e+002 1.777427e-001 8.911044e+001
         vertex 3.813471e+002 3.501777e+002 8.158536e+001
         vertex 3.516921e+002 2.342640e-001 9.036124e+001
      endloop
   endfacet
   facet normal 1.291581e-002 2.344134e-002 9.996418e-001
      outer loop
         vertex 3.516921e+002 2.342640e-001 9.036124e+001
         vertex 3.813471e+002 3.501777e+002 8.158536e+001
         vertex 3.520016e+002 3.502343e+002 8.214044e+001
      endloop
   endfacet
   facet normal 4.168240e-004 2.539927e-002 9.996773e-001
      outer loop
         vertex 3.516921e+002 2.342640e-001 9.036124e+001
         vertex 3.520016e+002 3.502343e+002 8.214044e+001
         vertex 3.484197e+002 2.405721e-001 9.050085e+001
      endloop
   endfacet
   facet normal -1.889128e-003 2.310696e-002 9.997312e-001
      outer loop
         vertex 3.484197e+002 2.405721e-001 9.050085e+001
         vertex 3.520016e+002 3.502343e+002 8.214044e+001
         vertex 3.226407e+002 3.502909e+002 8.214814e+001
      endloop
   endfacet
   facet normal -2.344985e-002 2.367039e-002 9.994448e-001
      outer loop
         vertex 3.484197e+002 2.405721e-001 9.050085e+001
         vertex 3.226407e+002 3.502909e+002 8.214814e+001
         vertex 3.223576e+002 2.908114e-001 8.899865e+001
      endloop
   endfacet
   facet normal 2.648502e-001 8.629940e-003 9.642510e-001
      outer loop
         vertex 1.025545e+000 1.759106e+002 9.822861e+001
         vertex 1.544653e+001 1.758828e+002 9.360550e+001
         vertex 1.521078e+001 3.508835e+002 9.267959e+001
      endloop
   endfacet
   facet normal 2.090258e-001 2.753459e-003 9.779062e-001
      outer loop
         vertex 1.521078e+001 3.508835e+002 9.267959e+001
         vertex 1.544653e+001 1.758828e+002 9.360550e+001
         vertex 2.974994e+001 3.508555e+002 9.016031e+001
      endloop
   endfacet
   facet normal 1.380090e-001 -8.645277e-005 9.904310e-001
      outer loop
         vertex 1.521078e+001 3.508835e+002 9.267959e+001
         vertex 2.974994e+001 3.508555e+002 9.016031e+001
         vertex 2.960356e+001 5.258561e+002 9.067210e+001
      endloop
   endfacet
   facet normal 1.159946e-001 -6.658447e-003 9.932275e-001
      outer loop
         vertex 2.960356e+001 5.258561e+002 9.067210e+001
         vertex 2.974994e+001 3.508555e+002 9.016031e+001
         vertex 5.887421e+001 3.507994e+002 8.611614e+001
      endloop
   endfacet
   facet normal 8.445971e-002 -1.088150e-002 9.963675e-001
      outer loop
         vertex 2.960356e+001 5.258561e+002 9.067210e+001
         vertex 5.887421e+001 3.507994e+002 8.611614e+001
         vertex 5.887286e+001 5.257997e+002 8.866726e+001
      endloop
   endfacet
   facet normal 1.572634e-001 -2.041993e-002 9.873456e-001
      outer loop
         vertex 7.041617e+001 7.764737e-001 7.828999e+001
         vertex 8.788969e+001 7.427904e-001 7.616504e+001
         vertex 5.887558e+001 1.757990e+002 8.356503e+001
      endloop
   endfacet
   facet normal 1.235800e-001 -2.004598e-002 9.921321e-001
      outer loop
         vertex 5.887558e+001 1.757990e+002 8.356503e+001
         vertex 8.788969e+001 7.427904e-001 7.616504e+001
         vertex 8.805400e+001 3.507431e+002 8.325374e+001
      endloop
   endfacet
   facet normal 3.200764e-001 -1.186974e-003 9.473910e-001
      outer loop
         vertex 1.591939e+001 8.815261e-001 9.501072e+001
         vertex 3.016583e+001 8.540635e-001 8.924880e+001
         vertex 2.989628e+001 1.758549e+002 8.964853e+001
      endloop
   endfacet
   facet normal 2.939178e-001 -5.185483e-003 9.558166e-001
      outer loop
         vertex 2.989628e+001 1.758549e+002 8.964853e+001
         vertex 3.016583e+001 8.540635e-001 8.924880e+001
         vertex 3.569740e+001 8.434004e-001 8.701157e+001
      endloop
   endfacet
   facet normal 2.402832e-001 -8.640285e-003 9.706644e-001
      outer loop
         vertex 2.989628e+001 1.758549e+002 8.964853e+001
         vertex 3.569740e+001 8.434004e-001 8.701157e+001
         vertex 5.887558e+001 1.757990e+002 8.356503e+001
      endloop
   endfacet
   facet normal 2.327623e-001 -1.358820e-002 9.724388e-001
      outer loop
         vertex 5.887558e+001 1.757990e+002 8.356503e+001
         vertex 3.569740e+001 8.434004e-001 8.701157e+001
         vertex 5.898360e+001 7.985121e-001 8.116193e+001
      endloop
   endfacet
   facet normal 1.900250e-001 -1.809329e-002 9.816125e-001
      outer loop
         vertex 5.887558e+001 1.757990e+002 8.356503e+001
         vertex 5.898360e+001 7.985121e-001 8.116193e+001
         vertex 7.041617e+001 7.764737e-001 7.828999e+001
      endloop
   endfacet
   facet normal 3.708000e-001 8.008895e-003 9.286782e-001
      outer loop
         vertex 1.362866e+000 9.095863e-001 1.008981e+002
         vertex 1.591939e+001 8.815261e-001 9.501072e+001
         vertex 1.544653e+001 1.758828e+002 9.360550e+001
      endloop
   endfacet
   facet normal 3.050663e-001 2.131211e-003 9.523287e-001
      outer loop
         vertex 1.544653e+001 1.758828e+002 9.360550e+001
         vertex 1.591939e+001 8.815261e-001 9.501072e+001
         vertex 2.989628e+001 1.758549e+002 8.964853e+001
      endloop
   endfacet
   facet normal 2.295286e-001 -1.203328e-004 9.733019e-001
      outer loop
         vertex 1.544653e+001 1.758828e+002 9.360550e+001
         vertex 2.989628e+001 1.758549e+002 8.964853e+001
         vertex 2.974994e+001 3.508555e+002 9.016031e+001
      endloop
   endfacet
   facet normal 1.905130e-001 -6.880695e-003 9.816605e-001
      outer loop
         vertex 2.974994e+001 3.508555e+002 9.016031e+001
         vertex 2.989628e+001 1.758549e+002 8.964853e+001
         vertex 5.887558e+001 1.757990e+002 8.356503e+001
      endloop
   endfacet
   facet normal 1.479753e-001 -1.057668e-002 9.889345e-001
      outer loop
         vertex 2.974994e+001 3.508555e+002 9.016031e+001
         vertex 5.887558e+001 1.757990e+002 8.356503e+001
         vertex 5.887421e+001 3.507994e+002 8.611614e+001
      endloop
   endfacet
   facet normal 1.214216e-001 -1.647804e-002 9.924642e-001
      outer loop
         vertex 5.887421e+001 3.507994e+002 8.611614e+001
         vertex 5.887558e+001 1.757990e+002 8.356503e+001
         vertex 8.805400e+001 3.507431e+002 8.325374e+001
      endloop
   endfacet
   facet normal 8.697164e-002 -1.653152e-002 9.960736e-001
      outer loop
         vertex 5.887421e+001 3.507994e+002 8.611614e+001
         vertex 8.805400e+001 3.507431e+002 8.325374e+001
         vertex 5.887286e+001 5.257997e+002 8.866726e+001
      endloop
   endfacet
   facet normal 6.527789e-002 -1.942293e-002 9.976781e-001
      outer loop
         vertex 5.887286e+001 5.257997e+002 8.866726e+001
         vertex 8.805400e+001 3.507431e+002 8.325374e+001
         vertex 1.174553e+002 5.256868e+002 8.525650e+001
      endloop
   endfacet
   facet normal 4.418136e-002 -1.945443e-002 9.988341e-001
      outer loop
         vertex 5.887286e+001 5.257997e+002 8.866726e+001
         vertex 1.174553e+002 5.256868e+002 8.525650e+001
         vertex 6.557748e+001 7.007870e+002 9.148447e+001
      endloop
   endfacet
   facet normal 4.135306e-002 -2.314296e-002 9.988765e-001
      outer loop
         vertex 6.557748e+001 7.007870e+002 9.148447e+001
         vertex 1.174553e+002 5.256868e+002 8.525650e+001
         vertex 1.176295e+002 7.006868e+002 8.899377e+001
      endloop
   endfacet
   facet normal 1.175279e-002 -2.299711e-002 9.996665e-001
      outer loop
         vertex 1.460996e+002 6.305804e-001 7.324519e+001
         vertex 1.465517e+002 3.506303e+002 8.038255e+001
         vertex 1.169147e+002 6.868395e-001 7.364162e+001
      endloop
   endfacet
   facet normal 3.665127e-002 -2.244985e-002 9.990759e-001
      outer loop
         vertex 1.169147e+002 6.868395e-001 7.364162e+001
         vertex 1.465517e+002 3.506303e+002 8.038255e+001
         vertex 1.172822e+002 3.506868e+002 8.140018e+001
      endloop
   endfacet
   facet normal 5.067634e-002 -2.477304e-002 9.984078e-001
      outer loop
         vertex 1.169147e+002 6.868395e-001 7.364162e+001
         vertex 1.172822e+002 3.506868e+002 8.140018e+001
         vertex 1.075992e+002 7.047967e-001 7.376817e+001
      endloop
   endfacet
   facet normal -8.990061e-002 -8.122513e-003 9.959176e-001
      outer loop
         vertex 2.049565e+002 1.755174e+002 7.883688e+001
         vertex 2.046985e+002 5.176204e-001 7.746980e+001
         vertex 2.076791e+002 5.118748e-001 7.769602e+001
      endloop
   endfacet
   facet normal -7.900175e-002 -1.119009e-002 9.968117e-001
      outer loop
         vertex 2.046985e+002 5.176204e-001 7.746980e+001
         vertex 2.049565e+002 1.755174e+002 7.883688e+001
         vertex 1.753266e+002 5.742401e-001 7.524053e+001
      endloop
   endfacet
   facet normal -5.525685e-002 -1.326832e-002 9.983840e-001
      outer loop
         vertex 1.753266e+002 5.742401e-001 7.524053e+001
         vertex 2.049565e+002 1.755174e+002 7.883688e+001
         vertex 1.756247e+002 1.755740e+002 7.747720e+001
      endloop
   endfacet
   facet normal -4.698879e-002 -1.830975e-002 9.987276e-001
      outer loop
         vertex 1.753266e+002 5.742401e-001 7.524053e+001
         vertex 1.756247e+002 1.755740e+002 7.747720e+001
         vertex 1.485909e+002 6.257780e-001 7.321134e+001
      endloop
   endfacet
   facet normal -4.446347e-002 -1.089978e-002 9.989516e-001
      outer loop
         vertex 4.695587e+002 5.250080e+002 7.742670e+001
         vertex 4.698961e+002 7.000077e+002 7.994671e+001
         vertex 4.548860e+002 5.250363e+002 7.744787e+001
      endloop
   endfacet
   facet normal -7.473370e-002 -4.034472e-003 9.971954e-001
      outer loop
         vertex 4.548860e+002 5.250363e+002 7.744787e+001
         vertex 4.698961e+002 7.000077e+002 7.994671e+001
         vertex 4.404026e+002 7.000645e+002 7.718829e+001
      endloop
   endfacet
   facet normal -2.822189e-002 2.027390e-003 9.995996e-001
      outer loop
         vertex 4.548860e+002 5.250363e+002 7.744787e+001
         vertex 4.404026e+002 7.000645e+002 7.718829e+001
         vertex 4.402120e+002 5.250646e+002 7.748654e+001
      endloop
   endfacet
   facet normal -4.655719e-002 9.435005e-003 9.988711e-001
      outer loop
         vertex 4.402120e+002 5.250646e+002 7.748654e+001
         vertex 4.404026e+002 7.000645e+002 7.718829e+001
         vertex 4.142837e+002 7.001149e+002 7.474548e+001
      endloop
   endfacet
   facet normal -1.456812e-002 1.272571e-002 9.998129e-001
      outer loop
         vertex 4.402120e+002 5.250646e+002 7.748654e+001
         vertex 4.142837e+002 7.001149e+002 7.474548e+001
         vertex 4.108612e+002 5.251212e+002 7.762132e+001
      endloop
   endfacet
   facet normal -3.189253e-002 1.770042e-002 9.993346e-001
      outer loop
         vertex 4.108612e+002 5.251212e+002 7.762132e+001
         vertex 4.142837e+002 7.001149e+002 7.474548e+001
         vertex 4.110459e+002 7.001212e+002 7.469360e+001
      endloop
   endfacet
   facet normal -8.558881e-003 2.069996e-002 9.997491e-001
      outer loop
         vertex 4.108612e+002 5.251212e+002 7.762132e+001
         vertex 4.110459e+002 7.001212e+002 7.469360e+001
         vertex 3.527636e+002 7.002335e+002 7.375980e+001
      endloop
   endfacet
   facet normal -3.898515e-002 1.998508e-002 9.990399e-001
      outer loop
         vertex 3.223576e+002 2.908114e-001 8.899865e+001
         vertex 3.226407e+002 3.502909e+002 8.214814e+001
         vertex 2.930964e+002 1.753475e+002 8.445604e+001
      endloop
   endfacet
   facet normal -2.592965e-002 1.698599e-002 9.995195e-001
      outer loop
         vertex 2.930964e+002 1.753475e+002 8.445604e+001
         vertex 3.226407e+002 3.502909e+002 8.214814e+001
         vertex 2.932718e+002 3.503475e+002 8.178137e+001
      endloop
   endfacet
   facet normal -2.986236e-002 1.040928e-002 9.994998e-001
      outer loop
         vertex 2.930964e+002 1.753475e+002 8.445604e+001
         vertex 2.932718e+002 3.503475e+002 8.178137e+001
         vertex 2.345376e+002 3.504607e+002 8.061610e+001
      endloop
   endfacet
   facet normal -2.124964e-003 5.248417e-003 9.999840e-001
      outer loop
         vertex 2.345376e+002 3.504607e+002 8.061610e+001
         vertex 2.932718e+002 3.503475e+002 8.178137e+001
         vertex 2.347542e+002 5.254606e+002 8.055499e+001
      endloop
   endfacet
   facet normal 1.676741e-002 -4.806600e-003 9.998479e-001
      outer loop
         vertex 2.345376e+002 3.504607e+002 8.061610e+001
         vertex 2.347542e+002 5.254606e+002 8.055499e+001
         vertex 1.760863e+002 5.255737e+002 8.257867e+001
      endloop
   endfacet
   facet normal 4.984582e-002 -1.069614e-002 9.986997e-001
      outer loop
         vertex 1.760863e+002 5.255737e+002 8.257867e+001
         vertex 2.347542e+002 5.254606e+002 8.055499e+001
         vertex 1.763349e+002 7.005735e+002 8.530004e+001
      endloop
   endfacet
   facet normal 6.399071e-002 -1.850684e-002 9.977789e-001
      outer loop
         vertex 1.760863e+002 5.255737e+002 8.257867e+001
         vertex 1.763349e+002 7.005735e+002 8.530004e+001
         vertex 1.486053e+002 7.006270e+002 8.751157e+001
      endloop
   endfacet
   facet normal 1.992921e-001 -1.115613e-002 9.798766e-001
      outer loop
         vertex 4.688841e+002 1.750087e+002 7.238668e+001
         vertex 4.692214e+002 3.500083e+002 7.490669e+001
         vertex 4.543095e+002 1.750368e+002 7.588837e+001
      endloop
   endfacet
   facet normal 1.513274e-001 -7.918248e-003 9.884520e-001
      outer loop
         vertex 4.543095e+002 1.750368e+002 7.588837e+001
         vertex 4.692214e+002 3.500083e+002 7.490669e+001
         vertex 4.545977e+002 3.500365e+002 7.666812e+001
      endloop
   endfacet
   facet normal 1.670749e-001 -1.787241e-003 9.859426e-001
      outer loop
         vertex 4.543095e+002 1.750368e+002 7.588837e+001
         vertex 4.545977e+002 3.500365e+002 7.666812e+001
         vertex 4.397162e+002 1.750649e+002 7.879625e+001
      endloop
   endfacet
   facet normal 1.259209e-001 8.371658e-004 9.920399e-001
      outer loop
         vertex 4.397162e+002 1.750649e+002 7.879625e+001
         vertex 4.545977e+002 3.500365e+002 7.666812e+001
         vertex 4.399641e+002 3.500648e+002 7.814140e+001
      endloop
   endfacet
   facet normal 1.086586e-001 7.400685e-003 9.940516e-001
      outer loop
         vertex 4.397162e+002 1.750649e+002 7.879625e+001
         vertex 4.399641e+002 3.500648e+002 7.814140e+001
         vertex 4.106703e+002 3.501212e+002 8.030998e+001
      endloop
   endfacet
   facet normal 5.157482e-002 1.145810e-002 9.986034e-001
      outer loop
         vertex 4.106703e+002 3.501212e+002 8.030998e+001
         vertex 4.399641e+002 3.500648e+002 7.814140e+001
         vertex 4.108612e+002 5.251212e+002 7.762132e+001
      endloop
   endfacet
   facet normal 3.132055e-002 1.731388e-002 9.993594e-001
      outer loop
         vertex 4.106703e+002 3.501212e+002 8.030998e+001
         vertex 4.108612e+002 5.251212e+002 7.762132e+001
         vertex 3.813471e+002 3.501777e+002 8.158536e+001
      endloop
   endfacet
   facet normal 1.789725e-002 2.131712e-002 9.996126e-001
      outer loop
         vertex 3.813471e+002 3.501777e+002 8.158536e+001
         vertex 4.108612e+002 5.251212e+002 7.762132e+001
         vertex 3.523051e+002 7.002344e+002 7.378099e+001
      endloop
   endfacet
   facet normal 1.877526e-002 2.343395e-002 9.995491e-001
      outer loop
         vertex 3.813471e+002 3.501777e+002 8.158536e+001
         vertex 3.523051e+002 7.002344e+002 7.378099e+001
         vertex 3.520016e+002 3.502343e+002 8.214044e+001
      endloop
   endfacet
   facet normal 2.904644e-002 2.238664e-002 9.993274e-001
      outer loop
         vertex 3.520016e+002 3.502343e+002 8.214044e+001
         vertex 3.523051e+002 7.002344e+002 7.378099e+001
         vertex 2.936445e+002 7.003474e+002 7.649367e+001
      endloop
   endfacet
   facet normal 2.997943e-002 1.864518e-002 9.993766e-001
      outer loop
         vertex 3.520016e+002 3.502343e+002 8.214044e+001
         vertex 2.936445e+002 7.003474e+002 7.649367e+001
         vertex 2.934472e+002 5.253475e+002 7.910671e+001
      endloop
   endfacet
   facet normal 5.015088e-002 1.564431e-002 9.986191e-001
      outer loop
         vertex 2.934472e+002 5.253475e+002 7.910671e+001
         vertex 2.936445e+002 7.003474e+002 7.649367e+001
         vertex 2.772472e+002 7.003791e+002 7.725194e+001
      endloop
   endfacet
   facet normal 3.958858e-002 9.810140e-003 9.991679e-001
      outer loop
         vertex 2.934472e+002 5.253475e+002 7.910671e+001
         vertex 2.772472e+002 7.003791e+002 7.725194e+001
         vertex 2.347542e+002 5.254606e+002 8.055499e+001
      endloop
   endfacet
   facet normal 6.016405e-002 4.637394e-003 9.981777e-001
      outer loop
         vertex 2.347542e+002 5.254606e+002 8.055499e+001
         vertex 2.772472e+002 7.003791e+002 7.725194e+001
         vertex 2.349979e+002 7.004605e+002 8.062147e+001
      endloop
   endfacet
   facet normal 6.390607e-002 -5.588816e-003 9.979402e-001
      outer loop
         vertex 2.347542e+002 5.254606e+002 8.055499e+001
         vertex 2.349979e+002 7.004605e+002 8.062147e+001
         vertex 1.763349e+002 7.005735e+002 8.530004e+001
      endloop
   endfacet
   facet normal -1.195625e-002 -2.185420e-002 9.996897e-001
      outer loop
         vertex 1.460996e+002 6.305804e-001 7.324519e+001
         vertex 1.485909e+002 6.257780e-001 7.321134e+001
         vertex 1.465517e+002 3.506303e+002 8.038255e+001
      endloop
   endfacet
   facet normal -1.450935e-002 -1.909200e-002 9.997125e-001
      outer loop
         vertex 1.465517e+002 3.506303e+002 8.038255e+001
         vertex 1.485909e+002 6.257780e-001 7.321134e+001
         vertex 1.756247e+002 1.755740e+002 7.747720e+001
      endloop
   endfacet
   facet normal -3.084068e-003 -1.624755e-002 9.998633e-001
      outer loop
         vertex 1.465517e+002 3.506303e+002 8.038255e+001
         vertex 1.756247e+002 1.755740e+002 7.747720e+001
         vertex 1.758555e+002 3.505739e+002 8.002793e+001
      endloop
   endfacet
   facet normal -2.933926e-002 -1.236426e-002 9.994931e-001
      outer loop
         vertex 1.758555e+002 3.505739e+002 8.002793e+001
         vertex 1.756247e+002 1.755740e+002 7.747720e+001
         vertex 2.049565e+002 1.755174e+002 7.883688e+001
      endloop
   endfacet
   facet normal 8.903099e-002 -2.381525e-002 9.957441e-001
      outer loop
         vertex 8.788969e+001 7.427904e-001 7.616504e+001
         vertex 1.075992e+002 7.047967e-001 7.376817e+001
         vertex 8.805400e+001 3.507431e+002 8.325374e+001
      endloop
   endfacet
   facet normal 6.397213e-002 -2.275346e-002 9.976923e-001
      outer loop
         vertex 8.805400e+001 3.507431e+002 8.325374e+001
         vertex 1.075992e+002 7.047967e-001 7.376817e+001
         vertex 1.172822e+002 3.506868e+002 8.140018e+001
      endloop
   endfacet
   facet normal 5.968038e-002 -2.157369e-002 9.979844e-001
      outer loop
         vertex 8.805400e+001 3.507431e+002 8.325374e+001
         vertex 1.172822e+002 3.506868e+002 8.140018e+001
         vertex 1.174553e+002 5.256868e+002 8.525650e+001
      endloop
   endfacet
   facet normal 4.066164e-002 -2.129609e-002 9.989460e-001
      outer loop
         vertex 1.174553e+002 5.256868e+002 8.525650e+001
         vertex 1.172822e+002 3.506868e+002 8.140018e+001
         vertex 1.465517e+002 3.506303e+002 8.038255e+001
      endloop
   endfacet
   facet normal 3.792933e-002 -1.910566e-002 9.990978e-001
      outer loop
         vertex 1.174553e+002 5.256868e+002 8.525650e+001
         vertex 1.465517e+002 3.506303e+002 8.038255e+001
         vertex 1.760863e+002 5.255737e+002 8.257867e+001
      endloop
   endfacet
   facet normal 2.164014e-002 -1.627764e-002 9.996333e-001
      outer loop
         vertex 1.760863e+002 5.255737e+002 8.257867e+001
         vertex 1.465517e+002 3.506303e+002 8.038255e+001
         vertex 1.758555e+002 3.505739e+002 8.002793e+001
      endloop
   endfacet
   facet normal 7.890395e-003 -9.690226e-003 9.999219e-001
      outer loop
         vertex 1.760863e+002 5.255737e+002 8.257867e+001
         vertex 1.758555e+002 3.505739e+002 8.002793e+001
         vertex 2.345376e+002 3.504607e+002 8.061610e+001
      endloop
   endfacet
   facet normal -2.416544e-002 -7.238541e-003 9.996818e-001
      outer loop
         vertex 2.345376e+002 3.504607e+002 8.061610e+001
         vertex 1.758555e+002 3.505739e+002 8.002793e+001
         vertex 2.049565e+002 1.755174e+002 7.883688e+001
      endloop
   endfacet
   facet normal -4.736544e-002 -2.313999e-003 9.988750e-001
      outer loop
         vertex 2.345376e+002 3.504607e+002 8.061610e+001
         vertex 2.049565e+002 1.755174e+002 7.883688e+001
         vertex 2.343209e+002 1.754608e+002 8.067722e+001
      endloop
   endfacet
   facet normal -7.699024e-002 -5.056555e-003 9.970191e-001
      outer loop
         vertex 2.343209e+002 1.754608e+002 8.067722e+001
         vertex 2.049565e+002 1.755174e+002 7.883688e+001
         vertex 2.076791e+002 5.118748e-001 7.769602e+001
      endloop
   endfacet
   facet normal -9.782026e-002 -2.306211e-003 9.952014e-001
      outer loop
         vertex 2.343209e+002 1.754608e+002 8.067722e+001
         vertex 2.076791e+002 5.118748e-001 7.769602e+001
         vertex 2.340905e+002 4.609620e-001 8.070918e+001
      endloop
   endfacet
endsolid